<svg width="72" height="72" viewBox="0 0 72 72" fill="none" xmlns="http://www.w3.org/2000/svg">
<path d="M68.7376 20.7C69.6376 23.175 69.9751 25.65 69.7501 28.125L51.0751 9.11247C57.9376 8.32497 65.2501 11.25 68.7376 20.7Z" fill="#AC4474"/>
<path d="M3.26252 20.5875C10.4625 1.23745 33.8625 9.89995 36 19.575C37.0125 15.8625 40.6125 12.6 45.1125 10.575L68.0625 34.0875C61.65 49.4999 38.1375 61.6499 36 64.1249C33.3 61.6499 -4.49998 41.5125 3.26252 20.5875Z" fill="#AC4474"/>
<path d="M51.0751 9.11255L69.6376 28.0125C69.4125 30.15 68.85 32.175 68.0625 34.2L45.1125 10.6875C47.025 9.90005 49.0501 9.33755 51.0751 9.11255Z" fill="#DAE4EA"/>
<path d="M60.975 27.9001C60.975 27.9001 53.775 34.6501 55.2375 44.8876L49.725 39.3751L44.2125 45.0001C44.2125 45.0001 45.3375 32.7376 55.575 22.3876L60.975 27.9001Z" fill="#DAE4EA"/>
<path d="M55.2375 22.6125C53.2125 24.6375 53.4375 28.9125 55.6875 31.95L57.4875 34.425C59.7375 37.4625 62.4375 38.3625 63.45 36.45C64.4625 34.425 66.825 31.95 68.85 30.9375C70.7625 29.925 69.8625 27.225 66.9375 24.8625L64.575 23.0625C61.3125 20.8125 57.2625 20.5875 55.2375 22.6125Z" fill="white"/>
<path d="M55.5751 22.2749C55.0126 23.0624 56.1376 24.0749 57.7126 24.9749L58.6126 25.4249C60.3001 26.3249 60.7501 25.7624 59.5126 24.2999L58.8376 23.3999C57.9376 21.8249 56.2501 21.4874 55.5751 22.2749Z" fill="#DAE4EA"/>
<path d="M62.4376 35.9999C62.4376 36.4499 61.9876 36.45 61.7626 36.45C61.2001 36.5625 60.3001 36.2249 59.1751 34.9874C58.8376 34.65 58.5001 34.2 58.1626 33.8625L56.3626 31.3875C55.1251 29.7 54.5626 27.45 54.7876 25.7625C54.9001 25.7625 62.4376 31.05 62.4376 35.9999Z" fill="#C4CED6"/>
<path d="M50.175 16.875C50.175 16.875 43.65 24.3 33.525 22.8375L38.925 28.35L33.4125 33.975C33.4125 33.975 45.45 32.85 55.575 22.3875L50.175 16.875Z" fill="#DAE4EA"/>
<path d="M55.2376 22.725C53.2126 24.75 49.0501 24.6375 46.1251 22.275L43.7626 20.475C40.7251 18.225 39.8251 15.4125 41.8501 14.4C43.7626 13.3875 46.2376 10.9125 47.2501 8.88754C48.2626 6.86254 50.9626 7.76254 53.2126 10.9125L55.0126 13.3875C57.1501 16.425 57.2626 20.7 55.2376 22.725Z" fill="white"/>
<path d="M55.6875 22.275C55.0125 22.8375 53.8876 21.7125 53.1001 20.025L52.5376 19.125C51.6376 17.4375 52.2001 16.9875 53.6626 18.1125L54.5626 18.7875C56.025 20.025 56.475 21.7125 55.6875 22.275Z" fill="#DAE4EA"/>
<path d="M42.1875 15.3C41.7375 15.3 41.85 15.75 41.7375 15.975C41.625 16.5375 41.9625 17.4375 43.2 18.675C43.5375 19.0125 43.875 19.35 44.325 19.6875L46.6875 21.4875C48.375 22.725 50.5125 23.2875 52.2 23.0625C52.3125 23.0625 47.025 15.3 42.1875 15.3Z" fill="#C4CED6"/>
<path d="M53.2125 20.5875C52.0875 22.1625 51.975 24.1875 52.875 25.2C53.8875 26.2125 55.8 25.9875 57.375 24.8625L57.825 24.525C59.2875 23.4 59.4 21.2625 58.1625 19.9125L58.05 19.8C56.7 18.45 54.675 18.5625 53.55 20.1375L53.2125 20.5875Z" fill="white"/>
<path d="M54.7875 23.175C55.6875 24.075 57.375 24.075 58.8375 23.175C58.6125 23.625 58.275 24.075 57.825 24.4125L57.375 24.8625C55.9125 25.9875 53.8875 26.2125 52.875 25.2C51.8625 24.1875 52.0875 22.1625 53.2125 20.5875L53.55 20.025C53.8875 19.575 54.3375 19.2375 54.7875 19.0125C53.8875 20.475 53.8875 22.275 54.7875 23.175Z" fill="#DAE4EA"/>
</svg>
