<svg width="179" height="77" viewBox="0 0 179 77" fill="none" xmlns="http://www.w3.org/2000/svg">
<path d="M31.1649 13.62C32.2449 13.62 33.1449 13.584 33.8649 13.512V14.232C32.5209 14.544 31.5729 15.588 31.0209 17.364L24.2169 39.18H23.9289H23.6409L17.3769 20.64L11.6529 39.18H11.3649H11.0769L3.44489 16.536C2.94089 15.048 2.11289 14.28 0.960891 14.232V13.512C1.94489 13.584 3.22889 13.62 4.81289 13.62C6.54089 13.62 7.83689 13.584 8.70089 13.512V14.232C8.05289 14.28 7.59689 14.4 7.33289 14.592C7.06889 14.784 6.93689 15.084 6.93689 15.492C6.93689 15.876 7.06889 16.464 7.33289 17.256L12.5889 33.312L16.9809 19.38L16.0089 16.536C15.5289 15.048 14.8209 14.28 13.8849 14.232V13.512C14.7489 13.584 15.9129 13.62 17.3769 13.62C19.4409 13.62 20.9769 13.584 21.9849 13.512V14.232C21.0729 14.28 20.4369 14.388 20.0769 14.556C19.7169 14.7 19.5369 15.024 19.5369 15.528C19.5369 15.96 19.6569 16.536 19.8969 17.256L25.0809 33.276L29.5089 19.344C29.8929 18.168 30.0849 17.196 30.0849 16.428C30.0849 15.636 29.8449 15.084 29.3649 14.772C28.8849 14.436 28.1049 14.256 27.0249 14.232V13.512C28.3929 13.584 29.7729 13.62 31.1649 13.62ZM53.7467 34.392C53.7467 35.76 53.8307 37.296 53.9987 39C52.3667 38.928 49.6187 38.892 45.7547 38.892C41.1467 38.892 37.6667 38.928 35.3147 39V38.28C36.1787 38.232 36.8027 38.136 37.1867 37.992C37.5947 37.848 37.8707 37.572 38.0147 37.164C38.1587 36.756 38.2307 36.096 38.2307 35.184V17.328C38.2307 16.416 38.1587 15.756 38.0147 15.348C37.8707 14.94 37.5947 14.664 37.1867 14.52C36.8027 14.376 36.1787 14.28 35.3147 14.232V13.512C37.6667 13.584 41.1467 13.62 45.7547 13.62C49.2827 13.62 51.7907 13.584 53.2787 13.512C53.1107 15.096 53.0267 16.512 53.0267 17.76C53.0267 18.696 53.0627 19.44 53.1347 19.992H52.3067C52.1387 18.432 51.9227 17.28 51.6587 16.536C51.3947 15.768 50.9507 15.216 50.3267 14.88C49.7027 14.52 48.7547 14.34 47.4827 14.34H44.4947C43.6307 14.34 42.9947 14.412 42.5867 14.556C42.2027 14.676 41.9387 14.94 41.7947 15.348C41.6507 15.756 41.5787 16.416 41.5787 17.328V25.824H43.9547C44.7947 25.824 45.4427 25.632 45.8987 25.248C46.3547 24.84 46.6547 24.372 46.7987 23.844C46.9667 23.292 47.0987 22.608 47.1947 21.792L47.3027 21.072H48.1307C48.0587 22.08 48.0227 23.208 48.0227 24.456V26.184C48.0227 27.408 48.0947 29.112 48.2387 31.296H47.4107C47.3867 31.128 47.3147 30.552 47.1947 29.568C47.0747 28.56 46.7387 27.804 46.1867 27.3C45.6587 26.796 44.9147 26.544 43.9547 26.544H41.5787V35.184C41.5787 36.096 41.6507 36.756 41.7947 37.164C41.9387 37.572 42.2027 37.848 42.5867 37.992C42.9947 38.112 43.6307 38.172 44.4947 38.172H47.1227C48.6107 38.172 49.7387 37.98 50.5067 37.596C51.2987 37.188 51.8747 36.552 52.2347 35.688C52.5947 34.8 52.8587 33.504 53.0267 31.8H53.8547C53.7827 32.448 53.7467 33.312 53.7467 34.392ZM67.0802 13.512C71.3282 13.512 74.5082 14.58 76.6202 16.716C78.7322 18.828 79.7882 21.912 79.7882 25.968C79.7882 28.584 79.2722 30.876 78.2402 32.844C77.2082 34.812 75.7082 36.336 73.7402 37.416C71.7962 38.472 69.4682 39 66.7562 39L64.6682 38.964C63.3242 38.916 62.3402 38.892 61.7162 38.892C59.7482 38.892 58.2602 38.928 57.2522 39V38.28C58.1162 38.232 58.7402 38.136 59.1242 37.992C59.5322 37.848 59.8082 37.572 59.9522 37.164C60.0962 36.756 60.1682 36.096 60.1682 35.184V17.328C60.1682 16.416 60.0962 15.756 59.9522 15.348C59.8082 14.94 59.5322 14.664 59.1242 14.52C58.7402 14.376 58.1162 14.28 57.2522 14.232V13.512C58.0922 13.584 59.2562 13.62 60.7442 13.62L63.8042 13.584C65.4362 13.536 66.5282 13.512 67.0802 13.512ZM66.1802 14.16C65.4362 14.16 64.8722 14.244 64.4882 14.412C64.1282 14.58 63.8762 14.88 63.7322 15.312C63.5882 15.744 63.5162 16.392 63.5162 17.256V35.256C63.5162 36.12 63.5882 36.768 63.7322 37.2C63.8762 37.632 64.1282 37.932 64.4882 38.1C64.8722 38.268 65.4482 38.352 66.2162 38.352C68.7602 38.352 70.7642 37.896 72.2282 36.984C73.6922 36.048 74.7122 34.692 75.2882 32.916C75.8882 31.14 76.1882 28.872 76.1882 26.112C76.1882 23.352 75.8642 21.108 75.2162 19.38C74.5682 17.628 73.5122 16.32 72.0482 15.456C70.6082 14.592 68.6522 14.16 66.1802 14.16ZM92.7795 13.512C97.0275 13.512 100.207 14.58 102.319 16.716C104.431 18.828 105.487 21.912 105.487 25.968C105.487 28.584 104.971 30.876 103.939 32.844C102.907 34.812 101.407 36.336 99.4395 37.416C97.4955 38.472 95.1675 39 92.4555 39L90.3675 38.964C89.0235 38.916 88.0395 38.892 87.4155 38.892C85.4475 38.892 83.9595 38.928 82.9515 39V38.28C83.8155 38.232 84.4395 38.136 84.8235 37.992C85.2315 37.848 85.5075 37.572 85.6515 37.164C85.7955 36.756 85.8675 36.096 85.8675 35.184V17.328C85.8675 16.416 85.7955 15.756 85.6515 15.348C85.5075 14.94 85.2315 14.664 84.8235 14.52C84.4395 14.376 83.8155 14.28 82.9515 14.232V13.512C83.7915 13.584 84.9555 13.62 86.4435 13.62L89.5035 13.584C91.1355 13.536 92.2275 13.512 92.7795 13.512ZM91.8795 14.16C91.1355 14.16 90.5715 14.244 90.1875 14.412C89.8275 14.58 89.5755 14.88 89.4315 15.312C89.2875 15.744 89.2155 16.392 89.2155 17.256V35.256C89.2155 36.12 89.2875 36.768 89.4315 37.2C89.5755 37.632 89.8275 37.932 90.1875 38.1C90.5715 38.268 91.1475 38.352 91.9155 38.352C94.4595 38.352 96.4635 37.896 97.9275 36.984C99.3915 36.048 100.411 34.692 100.987 32.916C101.587 31.14 101.887 28.872 101.887 26.112C101.887 23.352 101.563 21.108 100.915 19.38C100.267 17.628 99.2115 16.32 97.7475 15.456C96.3075 14.592 94.3515 14.16 91.8795 14.16ZM117.831 14.232C116.967 14.28 116.331 14.376 115.923 14.52C115.539 14.664 115.275 14.94 115.131 15.348C114.987 15.756 114.915 16.416 114.915 17.328V35.184C114.915 36.096 114.987 36.756 115.131 37.164C115.275 37.572 115.539 37.848 115.923 37.992C116.331 38.136 116.967 38.232 117.831 38.28V39C116.727 38.928 115.203 38.892 113.259 38.892C111.195 38.892 109.659 38.928 108.651 39V38.28C109.515 38.232 110.139 38.136 110.523 37.992C110.931 37.848 111.207 37.572 111.351 37.164C111.495 36.756 111.567 36.096 111.567 35.184V17.328C111.567 16.416 111.495 15.756 111.351 15.348C111.207 14.94 110.931 14.664 110.523 14.52C110.139 14.376 109.515 14.28 108.651 14.232V13.512C109.659 13.584 111.195 13.62 113.259 13.62C115.179 13.62 116.703 13.584 117.831 13.512V14.232ZM143.458 14.232C142.618 14.28 141.994 14.412 141.586 14.628C141.178 14.82 140.902 15.156 140.758 15.636C140.614 16.092 140.542 16.776 140.542 17.688V39.18H139.714L124.594 15.816V34.824C124.594 35.76 124.666 36.456 124.81 36.912C124.978 37.368 125.29 37.704 125.746 37.92C126.202 38.112 126.91 38.232 127.87 38.28V39C127.006 38.928 125.782 38.892 124.198 38.892C122.758 38.892 121.642 38.928 120.85 39V38.28C121.69 38.232 122.314 38.112 122.722 37.92C123.13 37.704 123.406 37.368 123.55 36.912C123.694 36.432 123.766 35.736 123.766 34.824V17.328C123.766 16.416 123.694 15.756 123.55 15.348C123.406 14.94 123.13 14.664 122.722 14.52C122.338 14.376 121.714 14.28 120.85 14.232V13.512C121.642 13.584 122.758 13.62 124.198 13.62C125.278 13.62 126.214 13.584 127.006 13.512L139.714 33.096V17.688C139.714 16.752 139.63 16.056 139.462 15.6C139.318 15.144 139.018 14.82 138.562 14.628C138.106 14.412 137.398 14.28 136.438 14.232V13.512C137.302 13.584 138.526 13.62 140.11 13.62C141.55 13.62 142.666 13.584 143.458 13.512V14.232ZM158.046 13.008C159.462 13.008 160.626 13.212 161.538 13.62C162.45 14.004 163.446 14.58 164.526 15.348C164.838 15.588 165.078 15.708 165.246 15.708C165.702 15.708 166.002 14.976 166.146 13.512H166.974C166.878 15.072 166.83 17.832 166.83 21.792H166.002C165.786 20.52 165.558 19.476 165.318 18.66C165.078 17.82 164.706 17.088 164.202 16.464C163.506 15.6 162.594 14.916 161.466 14.412C160.362 13.908 159.198 13.656 157.974 13.656C156.39 13.656 154.998 14.172 153.798 15.204C152.598 16.236 151.674 17.712 151.026 19.632C150.378 21.528 150.054 23.748 150.054 26.292C150.054 30.612 150.738 33.78 152.106 35.796C153.498 37.788 155.67 38.784 158.622 38.784C160.062 38.784 161.31 38.412 162.366 37.668C162.798 37.38 163.074 37.104 163.194 36.84C163.338 36.552 163.41 36.168 163.41 35.688V32.232C163.41 31.224 163.314 30.492 163.122 30.036C162.93 29.58 162.594 29.268 162.114 29.1C161.634 28.932 160.854 28.824 159.774 28.776V28.056C161.022 28.128 162.714 28.164 164.85 28.164C166.482 28.164 167.73 28.128 168.594 28.056V28.776C168.042 28.824 167.634 28.92 167.37 29.064C167.13 29.208 166.962 29.484 166.866 29.892C166.794 30.3 166.758 30.96 166.758 31.872V39H166.038C166.014 38.52 165.918 38.064 165.75 37.632C165.582 37.176 165.354 36.948 165.066 36.948C164.922 36.948 164.778 36.984 164.634 37.056C164.49 37.128 164.238 37.296 163.878 37.56C163.038 38.208 162.162 38.688 161.25 39C160.362 39.336 159.366 39.504 158.262 39.504C155.79 39.504 153.666 39 151.89 37.992C150.138 36.96 148.794 35.484 147.858 33.564C146.922 31.644 146.454 29.352 146.454 26.688C146.454 23.952 146.946 21.552 147.93 19.488C148.938 17.4 150.318 15.804 152.07 14.7C153.822 13.572 155.814 13.008 158.046 13.008ZM41.7465 64.136V68.456C41.7465 69.064 41.8105 69.504 41.9385 69.776C42.0665 70.048 42.2905 70.232 42.6105 70.328C42.9305 70.424 43.4505 70.488 44.1705 70.52V71C43.3385 70.952 42.1625 70.928 40.6425 70.928C39.2665 70.928 38.2425 70.952 37.5705 71V70.52C38.1465 70.488 38.5625 70.424 38.8185 70.328C39.0905 70.232 39.2745 70.048 39.3705 69.776C39.4665 69.504 39.5145 69.064 39.5145 68.456V56.552C39.5145 55.944 39.4665 55.504 39.3705 55.232C39.2745 54.96 39.0905 54.776 38.8185 54.68C38.5625 54.584 38.1465 54.52 37.5705 54.488V54.008C38.2425 54.056 39.2185 54.08 40.4985 54.08L43.0905 54.056C43.3945 54.04 43.7385 54.032 44.1225 54.032C45.9945 54.032 47.4265 54.464 48.4185 55.328C49.4105 56.176 49.9065 57.32 49.9065 58.76C49.9065 59.64 49.7065 60.488 49.3065 61.304C48.9225 62.104 48.2585 62.776 47.3145 63.32C46.3865 63.864 45.1465 64.136 43.5945 64.136H41.7465ZM43.5225 54.488C43.0265 54.488 42.6505 54.544 42.3945 54.656C42.1545 54.768 41.9865 54.968 41.8905 55.256C41.7945 55.544 41.7465 55.976 41.7465 56.552V63.656H43.3545C44.9225 63.656 46.0025 63.24 46.5945 62.408C47.2025 61.56 47.5065 60.432 47.5065 59.024C47.5065 57.472 47.1945 56.328 46.5705 55.592C45.9625 54.856 44.9465 54.488 43.5225 54.488ZM57.7296 54.488C57.1536 54.52 56.7296 54.584 56.4576 54.68C56.2016 54.776 56.0256 54.96 55.9296 55.232C55.8336 55.504 55.7856 55.944 55.7856 56.552V68.456C55.7856 69.064 55.8336 69.504 55.9296 69.776C56.0256 70.048 56.2016 70.232 56.4576 70.328C56.7296 70.408 57.1536 70.448 57.7296 70.448H59.4816C60.4736 70.448 61.2256 70.312 61.7376 70.04C62.2656 69.752 62.6496 69.296 62.8896 68.672C63.1296 68.048 63.3056 67.144 63.4176 65.96H63.9696C63.9216 66.456 63.8976 67.112 63.8976 67.928C63.8976 68.84 63.9536 69.864 64.0656 71C62.9776 70.952 61.1456 70.928 58.5696 70.928C55.4976 70.928 53.1776 70.952 51.6096 71V70.52C52.1856 70.488 52.6016 70.424 52.8576 70.328C53.1296 70.232 53.3136 70.048 53.4096 69.776C53.5056 69.504 53.5536 69.064 53.5536 68.456V56.552C53.5536 55.944 53.5056 55.504 53.4096 55.232C53.3136 54.96 53.1296 54.776 52.8576 54.68C52.6016 54.584 52.1856 54.52 51.6096 54.488V54.008C52.2816 54.056 53.3056 54.08 54.6816 54.08C55.9616 54.08 56.9776 54.056 57.7296 54.008V54.488ZM78.3189 68.984C78.7029 69.976 79.2549 70.488 79.9749 70.52V71C79.3349 70.952 78.4789 70.928 77.4069 70.928C76.0309 70.928 75.0069 70.952 74.3349 71V70.52C74.9429 70.488 75.3749 70.416 75.6309 70.304C75.9029 70.176 76.0389 69.952 76.0389 69.632C76.0389 69.36 75.9429 68.984 75.7509 68.504L74.2869 64.568H68.4789L67.4949 67.112C67.1749 67.976 67.0149 68.632 67.0149 69.08C67.0149 69.576 67.1829 69.936 67.5189 70.16C67.8709 70.384 68.3989 70.504 69.1029 70.52V71C68.1909 70.952 67.2709 70.928 66.3429 70.928C65.6229 70.928 65.0229 70.952 64.5429 71V70.52C65.3429 70.328 65.9749 69.632 66.4389 68.432L72.0789 53.888H72.4629L78.3189 68.984ZM74.0949 64.088L71.4069 56.912L68.6709 64.088H74.0949ZM95.4394 54.488C94.8794 54.52 94.4634 54.608 94.1914 54.752C93.9194 54.88 93.7354 55.104 93.6394 55.424C93.5434 55.728 93.4954 56.184 93.4954 56.792V71.12H92.9434L82.8634 55.544V68.216C82.8634 68.84 82.9114 69.304 83.0074 69.608C83.1194 69.912 83.3274 70.136 83.6314 70.28C83.9354 70.408 84.4074 70.488 85.0474 70.52V71C84.4714 70.952 83.6554 70.928 82.5994 70.928C81.6394 70.928 80.8954 70.952 80.3674 71V70.52C80.9274 70.488 81.3434 70.408 81.6154 70.28C81.8874 70.136 82.0714 69.912 82.1674 69.608C82.2634 69.288 82.3114 68.824 82.3114 68.216V56.552C82.3114 55.944 82.2634 55.504 82.1674 55.232C82.0714 54.96 81.8874 54.776 81.6154 54.68C81.3594 54.584 80.9434 54.52 80.3674 54.488V54.008C80.8954 54.056 81.6394 54.08 82.5994 54.08C83.3194 54.08 83.9434 54.056 84.4714 54.008L92.9434 67.064V56.792C92.9434 56.168 92.8874 55.704 92.7754 55.4C92.6794 55.096 92.4794 54.88 92.1754 54.752C91.8714 54.608 91.3994 54.52 90.7594 54.488V54.008C91.3354 54.056 92.1514 54.08 93.2074 54.08C94.1674 54.08 94.9114 54.056 95.4394 54.008V54.488ZM112.385 54.488C111.825 54.52 111.409 54.608 111.137 54.752C110.865 54.88 110.681 55.104 110.585 55.424C110.489 55.728 110.441 56.184 110.441 56.792V71.12H109.889L99.8087 55.544V68.216C99.8087 68.84 99.8567 69.304 99.9527 69.608C100.065 69.912 100.273 70.136 100.577 70.28C100.881 70.408 101.353 70.488 101.993 70.52V71C101.417 70.952 100.601 70.928 99.5447 70.928C98.5847 70.928 97.8407 70.952 97.3127 71V70.52C97.8727 70.488 98.2887 70.408 98.5607 70.28C98.8327 70.136 99.0167 69.912 99.1127 69.608C99.2087 69.288 99.2567 68.824 99.2567 68.216V56.552C99.2567 55.944 99.2087 55.504 99.1127 55.232C99.0167 54.96 98.8327 54.776 98.5607 54.68C98.3047 54.584 97.8887 54.52 97.3127 54.488V54.008C97.8407 54.056 98.5847 54.08 99.5447 54.08C100.265 54.08 100.889 54.056 101.417 54.008L109.889 67.064V56.792C109.889 56.168 109.833 55.704 109.721 55.4C109.625 55.096 109.425 54.88 109.121 54.752C108.817 54.608 108.345 54.52 107.705 54.488V54.008C108.281 54.056 109.097 54.08 110.153 54.08C111.113 54.08 111.857 54.056 112.385 54.008V54.488ZM126.546 67.928C126.546 68.84 126.602 69.864 126.714 71C125.626 70.952 123.794 70.928 121.218 70.928C118.146 70.928 115.826 70.952 114.258 71V70.52C114.834 70.488 115.25 70.424 115.506 70.328C115.778 70.232 115.962 70.048 116.058 69.776C116.154 69.504 116.202 69.064 116.202 68.456V56.552C116.202 55.944 116.154 55.504 116.058 55.232C115.962 54.96 115.778 54.776 115.506 54.68C115.25 54.584 114.834 54.52 114.258 54.488V54.008C115.826 54.056 118.146 54.08 121.218 54.08C123.57 54.08 125.242 54.056 126.234 54.008C126.122 55.064 126.066 56.008 126.066 56.84C126.066 57.464 126.09 57.96 126.138 58.328H125.586C125.474 57.288 125.33 56.52 125.154 56.024C124.978 55.512 124.682 55.144 124.266 54.92C123.85 54.68 123.218 54.56 122.37 54.56H120.378C119.802 54.56 119.378 54.608 119.106 54.704C118.85 54.784 118.674 54.96 118.578 55.232C118.482 55.504 118.434 55.944 118.434 56.552V62.216H120.018C120.578 62.216 121.01 62.088 121.314 61.832C121.618 61.56 121.818 61.248 121.914 60.896C122.026 60.528 122.114 60.072 122.178 59.528L122.25 59.048H122.802C122.754 59.72 122.73 60.472 122.73 61.304V62.456C122.73 63.272 122.778 64.408 122.874 65.864H122.322C122.306 65.752 122.258 65.368 122.178 64.712C122.098 64.04 121.874 63.536 121.506 63.2C121.154 62.864 120.658 62.696 120.018 62.696H118.434V68.456C118.434 69.064 118.482 69.504 118.578 69.776C118.674 70.048 118.85 70.232 119.106 70.328C119.378 70.408 119.802 70.448 120.378 70.448H122.13C123.122 70.448 123.874 70.32 124.386 70.064C124.914 69.792 125.298 69.368 125.538 68.792C125.778 68.2 125.954 67.336 126.066 66.2H126.618C126.57 66.632 126.546 67.208 126.546 67.928ZM143.715 69.8C143.347 70.344 142.979 70.736 142.611 70.976C142.243 71.216 141.755 71.336 141.147 71.336C140.491 71.336 139.947 71.144 139.515 70.76C139.099 70.376 138.787 69.704 138.579 68.744L138.051 66.344C137.859 65.512 137.675 64.872 137.499 64.424C137.339 63.976 137.091 63.616 136.755 63.344C136.419 63.072 135.947 62.936 135.339 62.936H133.059V68.456C133.059 69.064 133.107 69.504 133.203 69.776C133.299 70.048 133.475 70.232 133.731 70.328C134.003 70.424 134.427 70.488 135.003 70.52V71C134.267 70.952 133.251 70.928 131.955 70.928C130.579 70.928 129.555 70.952 128.883 71V70.52C129.459 70.488 129.875 70.424 130.131 70.328C130.403 70.232 130.587 70.048 130.683 69.776C130.779 69.504 130.827 69.064 130.827 68.456V56.552C130.827 55.944 130.779 55.504 130.683 55.232C130.587 54.96 130.403 54.776 130.131 54.68C129.875 54.584 129.459 54.52 128.883 54.488V54.008C129.555 54.056 130.531 54.08 131.811 54.08L134.403 54.056C134.707 54.04 135.051 54.032 135.435 54.032C137.291 54.032 138.715 54.424 139.707 55.208C140.715 55.976 141.219 56.976 141.219 58.208C141.219 58.832 141.067 59.464 140.763 60.104C140.475 60.728 139.979 61.296 139.275 61.808C138.587 62.304 137.683 62.64 136.563 62.816L136.851 62.864C137.907 63.04 138.675 63.36 139.155 63.824C139.635 64.288 139.987 65.024 140.211 66.032L140.811 68.48C140.971 69.216 141.139 69.728 141.315 70.016C141.491 70.304 141.731 70.448 142.035 70.448C142.307 70.448 142.531 70.376 142.707 70.232C142.899 70.088 143.115 69.856 143.355 69.536L143.715 69.8ZM134.835 54.488C134.339 54.488 133.963 54.544 133.707 54.656C133.467 54.768 133.299 54.968 133.203 55.256C133.107 55.544 133.059 55.976 133.059 56.552V62.456H134.667C136.251 62.456 137.339 62.104 137.931 61.4C138.523 60.696 138.819 59.72 138.819 58.472C138.819 57.16 138.507 56.168 137.883 55.496C137.259 54.824 136.243 54.488 134.835 54.488Z" fill="black"/>
</svg>
