<svg width="72" height="72" viewBox="0 0 72 72" fill="none" xmlns="http://www.w3.org/2000/svg">
<path d="M36 6C19.5 6 6 19.5 6 36V66H66V36C66 19.5 52.5 6 36 6ZM36 12C44.7 12 52.32 16.68 56.52 23.64C55.23 23.85 53.88 24 52.5 24C43.8 24 36.18 19.32 31.98 12.36C33.27 12.15 34.62 12 36 12ZM24.24 15.09C22.347 20.7317 18.4368 25.4753 13.26 28.41C15.153 22.7683 19.0632 18.0248 24.24 15.09ZM12 35.58C19.8 32.64 26.07 26.61 29.22 18.93C32.0338 22.3894 35.5833 25.178 39.6104 27.0929C43.6375 29.0079 48.0408 30.001 52.5 30C54.75 30 56.91 29.73 59.01 29.28C59.64 31.41 60 33.66 60 36C60 49.23 49.23 60 36 60C22.77 60 12 49.23 12 36V35.58ZM12 60V54C13.71 56.25 15.75 58.29 18 60H12ZM60 60H54C56.25 58.29 58.29 56.25 60 54V60ZM41.25 39C41.25 38.0054 41.6451 37.0516 42.3484 36.3484C43.0516 35.6451 44.0054 35.25 45 35.25C45.9946 35.25 46.9484 35.6451 47.6517 36.3484C48.3549 37.0516 48.75 38.0054 48.75 39C48.75 39.9946 48.3549 40.9484 47.6517 41.6517C46.9484 42.3549 45.9946 42.75 45 42.75C44.0054 42.75 43.0516 42.3549 42.3484 41.6517C41.6451 40.9484 41.25 39.9946 41.25 39ZM23.25 39C23.25 38.0054 23.6451 37.0516 24.3484 36.3484C25.0516 35.6451 26.0054 35.25 27 35.25C27.9946 35.25 28.9484 35.6451 29.6517 36.3484C30.3549 37.0516 30.75 38.0054 30.75 39C30.75 39.9946 30.3549 40.9484 29.6517 41.6517C28.9484 42.3549 27.9946 42.75 27 42.75C26.0054 42.75 25.0516 42.3549 24.3484 41.6517C23.6451 40.9484 23.25 39.9946 23.25 39Z" fill="#AC4474"/>
</svg>
