<svg width="130" height="55" viewBox="0 0 130 55" fill="none" xmlns="http://www.w3.org/2000/svg">
<path d="M22.759 11.67C23.539 11.67 24.189 11.644 24.709 11.592V12.112C23.7383 12.3373 23.0536 13.0913 22.655 14.374L17.741 30.13H17.533H17.325L12.801 16.74L8.66695 30.13H8.45895H8.25095L2.73895 13.776C2.37495 12.7013 1.77695 12.1467 0.944953 12.112V11.592C1.65562 11.644 2.58295 11.67 3.72695 11.67C4.97495 11.67 5.91095 11.644 6.53495 11.592V12.112C6.06695 12.1467 5.73762 12.2333 5.54695 12.372C5.35629 12.5107 5.26095 12.7273 5.26095 13.022C5.26095 13.2993 5.35629 13.724 5.54695 14.296L9.34295 25.892L12.515 15.83L11.813 13.776C11.4663 12.7013 10.955 12.1467 10.279 12.112V11.592C10.903 11.644 11.7436 11.67 12.801 11.67C14.2916 11.67 15.401 11.644 16.129 11.592V12.112C15.4703 12.1467 15.011 12.2247 14.751 12.346C14.491 12.45 14.361 12.684 14.361 13.048C14.361 13.36 14.4476 13.776 14.621 14.296L18.365 25.866L21.563 15.804C21.8403 14.9547 21.979 14.2527 21.979 13.698C21.979 13.126 21.8056 12.7273 21.459 12.502C21.1123 12.2593 20.549 12.1293 19.769 12.112V11.592C20.757 11.644 21.7536 11.67 22.759 11.67ZM39.0681 26.672C39.0681 27.66 39.1287 28.7693 39.2501 30C38.0714 29.948 36.0867 29.922 33.2961 29.922C29.9681 29.922 27.4547 29.948 25.7561 30V29.48C26.3801 29.4453 26.8307 29.376 27.1081 29.272C27.4027 29.168 27.6021 28.9687 27.7061 28.674C27.8101 28.3793 27.8621 27.9027 27.8621 27.244V14.348C27.8621 13.6893 27.8101 13.2127 27.7061 12.918C27.6021 12.6233 27.4027 12.424 27.1081 12.32C26.8307 12.216 26.3801 12.1467 25.7561 12.112V11.592C27.4547 11.644 29.9681 11.67 33.2961 11.67C35.8441 11.67 37.6554 11.644 38.7301 11.592C38.6087 12.736 38.5481 13.7587 38.5481 14.66C38.5481 15.336 38.5741 15.8733 38.6261 16.272H38.0281C37.9067 15.1453 37.7507 14.3133 37.5601 13.776C37.3694 13.2213 37.0487 12.8227 36.5981 12.58C36.1474 12.32 35.4627 12.19 34.5441 12.19H32.3861C31.7621 12.19 31.3027 12.242 31.0081 12.346C30.7307 12.4327 30.5401 12.6233 30.4361 12.918C30.3321 13.2127 30.2801 13.6893 30.2801 14.348V20.484H31.9961C32.6027 20.484 33.0707 20.3453 33.4001 20.068C33.7294 19.7733 33.9461 19.4353 34.0501 19.054C34.1714 18.6553 34.2667 18.1613 34.3361 17.572L34.4141 17.052H35.0121C34.9601 17.78 34.9341 18.5947 34.9341 19.496V20.744C34.9341 21.628 34.9861 22.8587 35.0901 24.436H34.4921C34.4747 24.3147 34.4227 23.8987 34.3361 23.188C34.2494 22.46 34.0067 21.914 33.6081 21.55C33.2267 21.186 32.6894 21.004 31.9961 21.004H30.2801V27.244C30.2801 27.9027 30.3321 28.3793 30.4361 28.674C30.5401 28.9687 30.7307 29.168 31.0081 29.272C31.3027 29.3587 31.7621 29.402 32.3861 29.402H34.2841C35.3587 29.402 36.1734 29.2633 36.7281 28.986C37.3001 28.6913 37.7161 28.232 37.9761 27.608C38.2361 26.9667 38.4267 26.0307 38.5481 24.8H39.1461C39.0941 25.268 39.0681 25.892 39.0681 26.672ZM48.6978 11.592C51.7658 11.592 54.0625 12.3633 55.5878 13.906C57.1131 15.4313 57.8758 17.6587 57.8758 20.588C57.8758 22.4773 57.5031 24.1327 56.7578 25.554C56.0125 26.9753 54.9291 28.076 53.5078 28.856C52.1038 29.6187 50.4225 30 48.4638 30L46.9558 29.974C45.9851 29.9393 45.2745 29.922 44.8238 29.922C43.4025 29.922 42.3278 29.948 41.5998 30V29.48C42.2238 29.4453 42.6745 29.376 42.9518 29.272C43.2465 29.168 43.4458 28.9687 43.5498 28.674C43.6538 28.3793 43.7058 27.9027 43.7058 27.244V14.348C43.7058 13.6893 43.6538 13.2127 43.5498 12.918C43.4458 12.6233 43.2465 12.424 42.9518 12.32C42.6745 12.216 42.2238 12.1467 41.5998 12.112V11.592C42.2065 11.644 43.0471 11.67 44.1218 11.67L46.3318 11.644C47.5105 11.6093 48.2991 11.592 48.6978 11.592ZM48.0478 12.06C47.5105 12.06 47.1031 12.1207 46.8258 12.242C46.5658 12.3633 46.3838 12.58 46.2798 12.892C46.1758 13.204 46.1238 13.672 46.1238 14.296V27.296C46.1238 27.92 46.1758 28.388 46.2798 28.7C46.3838 29.012 46.5658 29.2287 46.8258 29.35C47.1031 29.4713 47.5191 29.532 48.0738 29.532C49.9111 29.532 51.3585 29.2027 52.4158 28.544C53.4731 27.868 54.2098 26.8887 54.6258 25.606C55.0591 24.3233 55.2758 22.6853 55.2758 20.692C55.2758 18.6987 55.0418 17.078 54.5738 15.83C54.1058 14.5647 53.3431 13.62 52.2858 12.996C51.2458 12.372 49.8331 12.06 48.0478 12.06ZM67.2584 11.592C70.3264 11.592 72.623 12.3633 74.1484 13.906C75.6737 15.4313 76.4364 17.6587 76.4364 20.588C76.4364 22.4773 76.0637 24.1327 75.3184 25.554C74.573 26.9753 73.4897 28.076 72.0684 28.856C70.6644 29.6187 68.983 30 67.0244 30L65.5164 29.974C64.5457 29.9393 63.835 29.922 63.3844 29.922C61.963 29.922 60.8884 29.948 60.1604 30V29.48C60.7844 29.4453 61.235 29.376 61.5124 29.272C61.807 29.168 62.0064 28.9687 62.1104 28.674C62.2144 28.3793 62.2664 27.9027 62.2664 27.244V14.348C62.2664 13.6893 62.2144 13.2127 62.1104 12.918C62.0064 12.6233 61.807 12.424 61.5124 12.32C61.235 12.216 60.7844 12.1467 60.1604 12.112V11.592C60.767 11.644 61.6077 11.67 62.6824 11.67L64.8924 11.644C66.071 11.6093 66.8597 11.592 67.2584 11.592ZM66.6084 12.06C66.071 12.06 65.6637 12.1207 65.3864 12.242C65.1264 12.3633 64.9444 12.58 64.8404 12.892C64.7364 13.204 64.6844 13.672 64.6844 14.296V27.296C64.6844 27.92 64.7364 28.388 64.8404 28.7C64.9444 29.012 65.1264 29.2287 65.3864 29.35C65.6637 29.4713 66.0797 29.532 66.6344 29.532C68.4717 29.532 69.919 29.2027 70.9764 28.544C72.0337 27.868 72.7704 26.8887 73.1864 25.606C73.6197 24.3233 73.8364 22.6853 73.8364 20.692C73.8364 18.6987 73.6024 17.078 73.1344 15.83C72.6664 14.5647 71.9037 13.62 70.8464 12.996C69.8064 12.372 68.3937 12.06 66.6084 12.06ZM85.3509 12.112C84.7269 12.1467 84.2676 12.216 83.9729 12.32C83.6956 12.424 83.5049 12.6233 83.4009 12.918C83.2969 13.2127 83.2449 13.6893 83.2449 14.348V27.244C83.2449 27.9027 83.2969 28.3793 83.4009 28.674C83.5049 28.9687 83.6956 29.168 83.9729 29.272C84.2676 29.376 84.7269 29.4453 85.3509 29.48V30C84.5536 29.948 83.4529 29.922 82.0489 29.922C80.5582 29.922 79.4489 29.948 78.7209 30V29.48C79.3449 29.4453 79.7956 29.376 80.0729 29.272C80.3676 29.168 80.5669 28.9687 80.6709 28.674C80.7749 28.3793 80.8269 27.9027 80.8269 27.244V14.348C80.8269 13.6893 80.7749 13.2127 80.6709 12.918C80.5669 12.6233 80.3676 12.424 80.0729 12.32C79.7956 12.216 79.3449 12.1467 78.7209 12.112V11.592C79.4489 11.644 80.5582 11.67 82.0489 11.67C83.4356 11.67 84.5362 11.644 85.3509 11.592V12.112ZM103.859 12.112C103.253 12.1467 102.802 12.242 102.507 12.398C102.213 12.5367 102.013 12.7793 101.909 13.126C101.805 13.4553 101.753 13.9493 101.753 14.608V30.13H101.155L90.2355 13.256V26.984C90.2355 27.66 90.2875 28.1627 90.3915 28.492C90.5128 28.8213 90.7381 29.064 91.0675 29.22C91.3968 29.3587 91.9081 29.4453 92.6015 29.48V30C91.9775 29.948 91.0935 29.922 89.9495 29.922C88.9095 29.922 88.1035 29.948 87.5315 30V29.48C88.1381 29.4453 88.5888 29.3587 88.8835 29.22C89.1781 29.064 89.3775 28.8213 89.4815 28.492C89.5855 28.1453 89.6375 27.6427 89.6375 26.984V14.348C89.6375 13.6893 89.5855 13.2127 89.4815 12.918C89.3775 12.6233 89.1781 12.424 88.8835 12.32C88.6061 12.216 88.1555 12.1467 87.5315 12.112V11.592C88.1035 11.644 88.9095 11.67 89.9495 11.67C90.7295 11.67 91.4055 11.644 91.9775 11.592L101.155 25.736V14.608C101.155 13.932 101.095 13.4293 100.973 13.1C100.869 12.7707 100.653 12.5367 100.323 12.398C99.9941 12.242 99.4828 12.1467 98.7895 12.112V11.592C99.4135 11.644 100.297 11.67 101.441 11.67C102.481 11.67 103.287 11.644 103.859 11.592V12.112ZM114.395 11.228C115.418 11.228 116.258 11.3753 116.917 11.67C117.576 11.9473 118.295 12.3633 119.075 12.918C119.3 13.0913 119.474 13.178 119.595 13.178C119.924 13.178 120.141 12.6493 120.245 11.592H120.843C120.774 12.7187 120.739 14.712 120.739 17.572H120.141C119.985 16.6533 119.82 15.8993 119.647 15.31C119.474 14.7033 119.205 14.1747 118.841 13.724C118.338 13.1 117.68 12.606 116.865 12.242C116.068 11.878 115.227 11.696 114.343 11.696C113.199 11.696 112.194 12.0687 111.327 12.814C110.46 13.5593 109.793 14.6253 109.325 16.012C108.857 17.3813 108.623 18.9847 108.623 20.822C108.623 23.942 109.117 26.23 110.105 27.686C111.11 29.1247 112.679 29.844 114.811 29.844C115.851 29.844 116.752 29.5753 117.515 29.038C117.827 28.83 118.026 28.6307 118.113 28.44C118.217 28.232 118.269 27.9547 118.269 27.608V25.112C118.269 24.384 118.2 23.8553 118.061 23.526C117.922 23.1967 117.68 22.9713 117.333 22.85C116.986 22.7287 116.423 22.6507 115.643 22.616V22.096C116.544 22.148 117.766 22.174 119.309 22.174C120.488 22.174 121.389 22.148 122.013 22.096V22.616C121.614 22.6507 121.32 22.72 121.129 22.824C120.956 22.928 120.834 23.1273 120.765 23.422C120.713 23.7167 120.687 24.1933 120.687 24.852V30H120.167C120.15 29.6533 120.08 29.324 119.959 29.012C119.838 28.6827 119.673 28.518 119.465 28.518C119.361 28.518 119.257 28.544 119.153 28.596C119.049 28.648 118.867 28.7693 118.607 28.96C118 29.428 117.368 29.7747 116.709 30C116.068 30.2427 115.348 30.364 114.551 30.364C112.766 30.364 111.232 30 109.949 29.272C108.684 28.5267 107.713 27.4607 107.037 26.074C106.361 24.6873 106.023 23.032 106.023 21.108C106.023 19.132 106.378 17.3987 107.089 15.908C107.817 14.4 108.814 13.2473 110.079 12.45C111.344 11.6353 112.783 11.228 114.395 11.228ZM33.331 46.424V49.304C33.331 49.7093 33.3737 50.0027 33.459 50.184C33.5443 50.3653 33.6937 50.488 33.907 50.552C34.1203 50.616 34.467 50.6587 34.947 50.68V51C34.3923 50.968 33.6083 50.952 32.595 50.952C31.6777 50.952 30.995 50.968 30.547 51V50.68C30.931 50.6587 31.2083 50.616 31.379 50.552C31.5603 50.488 31.683 50.3653 31.747 50.184C31.811 50.0027 31.843 49.7093 31.843 49.304V41.368C31.843 40.9627 31.811 40.6693 31.747 40.488C31.683 40.3067 31.5603 40.184 31.379 40.12C31.2083 40.056 30.931 40.0133 30.547 39.992V39.672C30.995 39.704 31.6457 39.72 32.499 39.72L34.227 39.704C34.4297 39.6933 34.659 39.688 34.915 39.688C36.163 39.688 37.1177 39.976 37.779 40.552C38.4403 41.1173 38.771 41.88 38.771 42.84C38.771 43.4267 38.6377 43.992 38.371 44.536C38.115 45.0693 37.6723 45.5173 37.043 45.88C36.4243 46.2427 35.5977 46.424 34.563 46.424H33.331ZM34.515 39.992C34.1843 39.992 33.9337 40.0293 33.763 40.104C33.603 40.1787 33.491 40.312 33.427 40.504C33.363 40.696 33.331 40.984 33.331 41.368V46.104H34.403C35.4483 46.104 36.1683 45.8267 36.563 45.272C36.9683 44.7067 37.171 43.9547 37.171 43.016C37.171 41.9813 36.963 41.2187 36.547 40.728C36.1417 40.2373 35.4643 39.992 34.515 39.992ZM43.9864 39.992C43.6024 40.0133 43.3197 40.056 43.1384 40.12C42.9677 40.184 42.8504 40.3067 42.7864 40.488C42.7224 40.6693 42.6904 40.9627 42.6904 41.368V49.304C42.6904 49.7093 42.7224 50.0027 42.7864 50.184C42.8504 50.3653 42.9677 50.488 43.1384 50.552C43.3197 50.6053 43.6024 50.632 43.9864 50.632H45.1544C45.8157 50.632 46.317 50.5413 46.6584 50.36C47.0104 50.168 47.2664 49.864 47.4264 49.448C47.5864 49.032 47.7037 48.4293 47.7784 47.64H48.1464C48.1144 47.9707 48.0984 48.408 48.0984 48.952C48.0984 49.56 48.1357 50.2427 48.2104 51C47.485 50.968 46.2637 50.952 44.5464 50.952C42.4984 50.952 40.9517 50.968 39.9064 51V50.68C40.2904 50.6587 40.5677 50.616 40.7384 50.552C40.9197 50.488 41.0424 50.3653 41.1064 50.184C41.1704 50.0027 41.2024 49.7093 41.2024 49.304V41.368C41.2024 40.9627 41.1704 40.6693 41.1064 40.488C41.0424 40.3067 40.9197 40.184 40.7384 40.12C40.5677 40.056 40.2904 40.0133 39.9064 39.992V39.672C40.3544 39.704 41.037 39.72 41.9544 39.72C42.8077 39.72 43.485 39.704 43.9864 39.672V39.992ZM57.7126 49.656C57.9686 50.3173 58.3366 50.6587 58.8166 50.68V51C58.39 50.968 57.8193 50.952 57.1046 50.952C56.1873 50.952 55.5046 50.968 55.0566 51V50.68C55.462 50.6587 55.75 50.6107 55.9206 50.536C56.102 50.4507 56.1926 50.3013 56.1926 50.088C56.1926 49.9067 56.1286 49.656 56.0006 49.336L55.0246 46.712H51.1526L50.4966 48.408C50.2833 48.984 50.1766 49.4213 50.1766 49.72C50.1766 50.0507 50.2886 50.2907 50.5126 50.44C50.7473 50.5893 51.0993 50.6693 51.5686 50.68V51C50.9606 50.968 50.3473 50.952 49.7286 50.952C49.2486 50.952 48.8486 50.968 48.5286 51V50.68C49.062 50.552 49.4833 50.088 49.7926 49.288L53.5526 39.592H53.8086L57.7126 49.656ZM54.8966 46.392L53.1046 41.608L51.2806 46.392H54.8966ZM69.1263 39.992C68.7529 40.0133 68.4756 40.072 68.2943 40.168C68.1129 40.2533 67.9903 40.4027 67.9263 40.616C67.8623 40.8187 67.8303 41.1227 67.8303 41.528V51.08H67.4623L60.7423 40.696V49.144C60.7423 49.56 60.7743 49.8693 60.8383 50.072C60.9129 50.2747 61.0516 50.424 61.2543 50.52C61.4569 50.6053 61.7716 50.6587 62.1983 50.68V51C61.8143 50.968 61.2703 50.952 60.5663 50.952C59.9263 50.952 59.4303 50.968 59.0783 51V50.68C59.4516 50.6587 59.7289 50.6053 59.9103 50.52C60.0916 50.424 60.2143 50.2747 60.2783 50.072C60.3423 49.8587 60.3743 49.5493 60.3743 49.144V41.368C60.3743 40.9627 60.3423 40.6693 60.2783 40.488C60.2143 40.3067 60.0916 40.184 59.9103 40.12C59.7396 40.056 59.4623 40.0133 59.0783 39.992V39.672C59.4303 39.704 59.9263 39.72 60.5663 39.72C61.0463 39.72 61.4623 39.704 61.8143 39.672L67.4623 48.376V41.528C67.4623 41.112 67.4249 40.8027 67.3503 40.6C67.2863 40.3973 67.1529 40.2533 66.9503 40.168C66.7476 40.072 66.4329 40.0133 66.0063 39.992V39.672C66.3903 39.704 66.9343 39.72 67.6383 39.72C68.2783 39.72 68.7743 39.704 69.1263 39.672V39.992ZM80.4231 39.992C80.0498 40.0133 79.7725 40.072 79.5911 40.168C79.4098 40.2533 79.2871 40.4027 79.2231 40.616C79.1591 40.8187 79.1271 41.1227 79.1271 41.528V51.08H78.7591L72.0391 40.696V49.144C72.0391 49.56 72.0711 49.8693 72.1351 50.072C72.2098 50.2747 72.3485 50.424 72.5511 50.52C72.7538 50.6053 73.0685 50.6587 73.4951 50.68V51C73.1111 50.968 72.5671 50.952 71.8631 50.952C71.2231 50.952 70.7271 50.968 70.3751 51V50.68C70.7485 50.6587 71.0258 50.6053 71.2071 50.52C71.3885 50.424 71.5111 50.2747 71.5751 50.072C71.6391 49.8587 71.6711 49.5493 71.6711 49.144V41.368C71.6711 40.9627 71.6391 40.6693 71.5751 40.488C71.5111 40.3067 71.3885 40.184 71.2071 40.12C71.0365 40.056 70.7591 40.0133 70.3751 39.992V39.672C70.7271 39.704 71.2231 39.72 71.8631 39.72C72.3431 39.72 72.7591 39.704 73.1111 39.672L78.7591 48.376V41.528C78.7591 41.112 78.7218 40.8027 78.6471 40.6C78.5831 40.3973 78.4498 40.2533 78.2471 40.168C78.0445 40.072 77.7298 40.0133 77.3031 39.992V39.672C77.6871 39.704 78.2311 39.72 78.9351 39.72C79.5751 39.72 80.0711 39.704 80.4231 39.672V39.992ZM89.864 48.952C89.864 49.56 89.9013 50.2427 89.976 51C89.2507 50.968 88.0293 50.952 86.312 50.952C84.264 50.952 82.7173 50.968 81.672 51V50.68C82.056 50.6587 82.3333 50.616 82.504 50.552C82.6853 50.488 82.808 50.3653 82.872 50.184C82.936 50.0027 82.968 49.7093 82.968 49.304V41.368C82.968 40.9627 82.936 40.6693 82.872 40.488C82.808 40.3067 82.6853 40.184 82.504 40.12C82.3333 40.056 82.056 40.0133 81.672 39.992V39.672C82.7173 39.704 84.264 39.72 86.312 39.72C87.88 39.72 88.9947 39.704 89.656 39.672C89.5813 40.376 89.544 41.0053 89.544 41.56C89.544 41.976 89.56 42.3067 89.592 42.552H89.224C89.1493 41.8587 89.0533 41.3467 88.936 41.016C88.8187 40.6747 88.6213 40.4293 88.344 40.28C88.0667 40.12 87.6453 40.04 87.08 40.04H85.752C85.368 40.04 85.0853 40.072 84.904 40.136C84.7333 40.1893 84.616 40.3067 84.552 40.488C84.488 40.6693 84.456 40.9627 84.456 41.368V45.144H85.512C85.8853 45.144 86.1733 45.0587 86.376 44.888C86.5787 44.7067 86.712 44.4987 86.776 44.264C86.8507 44.0187 86.9093 43.7147 86.952 43.352L87 43.032H87.368C87.336 43.48 87.32 43.9813 87.32 44.536V45.304C87.32 45.848 87.352 46.6053 87.416 47.576H87.048C87.0373 47.5013 87.0053 47.2453 86.952 46.808C86.8987 46.36 86.7493 46.024 86.504 45.8C86.2693 45.576 85.9387 45.464 85.512 45.464H84.456V49.304C84.456 49.7093 84.488 50.0027 84.552 50.184C84.616 50.3653 84.7333 50.488 84.904 50.552C85.0853 50.6053 85.368 50.632 85.752 50.632H86.92C87.5813 50.632 88.0827 50.5467 88.424 50.376C88.776 50.1947 89.032 49.912 89.192 49.528C89.352 49.1333 89.4693 48.5573 89.544 47.8H89.912C89.88 48.088 89.864 48.472 89.864 48.952ZM101.31 50.2C101.065 50.5627 100.819 50.824 100.574 50.984C100.329 51.144 100.003 51.224 99.598 51.224C99.1607 51.224 98.798 51.096 98.51 50.84C98.2327 50.584 98.0247 50.136 97.886 49.496L97.534 47.896C97.406 47.3413 97.2833 46.9147 97.166 46.616C97.0593 46.3173 96.894 46.0773 96.67 45.896C96.446 45.7147 96.1313 45.624 95.726 45.624H94.206V49.304C94.206 49.7093 94.238 50.0027 94.302 50.184C94.366 50.3653 94.4833 50.488 94.654 50.552C94.8353 50.616 95.118 50.6587 95.502 50.68V51C95.0113 50.968 94.334 50.952 93.47 50.952C92.5527 50.952 91.87 50.968 91.422 51V50.68C91.806 50.6587 92.0833 50.616 92.254 50.552C92.4353 50.488 92.558 50.3653 92.622 50.184C92.686 50.0027 92.718 49.7093 92.718 49.304V41.368C92.718 40.9627 92.686 40.6693 92.622 40.488C92.558 40.3067 92.4353 40.184 92.254 40.12C92.0833 40.056 91.806 40.0133 91.422 39.992V39.672C91.87 39.704 92.5207 39.72 93.374 39.72L95.102 39.704C95.3047 39.6933 95.534 39.688 95.79 39.688C97.0273 39.688 97.9767 39.9493 98.638 40.472C99.31 40.984 99.646 41.6507 99.646 42.472C99.646 42.888 99.5447 43.3093 99.342 43.736C99.15 44.152 98.8193 44.5307 98.35 44.872C97.8913 45.2027 97.2887 45.4267 96.542 45.544L96.734 45.576C97.438 45.6933 97.95 45.9067 98.27 46.216C98.59 46.5253 98.8247 47.016 98.974 47.688L99.374 49.32C99.4807 49.8107 99.5927 50.152 99.71 50.344C99.8273 50.536 99.9873 50.632 100.19 50.632C100.371 50.632 100.521 50.584 100.638 50.488C100.766 50.392 100.91 50.2373 101.07 50.024L101.31 50.2ZM95.39 39.992C95.0593 39.992 94.8087 40.0293 94.638 40.104C94.478 40.1787 94.366 40.312 94.302 40.504C94.238 40.696 94.206 40.984 94.206 41.368V45.304H95.278C96.334 45.304 97.0593 45.0693 97.454 44.6C97.8487 44.1307 98.046 43.48 98.046 42.648C98.046 41.7733 97.838 41.112 97.422 40.664C97.006 40.216 96.3287 39.992 95.39 39.992Z" fill="white"/>
</svg>
