<svg width="159" height="70" viewBox="0 0 159 70" fill="none" xmlns="http://www.w3.org/2000/svg">
<path d="M27.7021 12.44C28.6621 12.44 29.4621 12.408 30.1021 12.344V12.984C28.9075 13.2613 28.0648 14.1893 27.5741 15.768L21.5261 35.16H21.2701H21.0141L15.4461 18.68L10.3581 35.16H10.1021H9.84613L3.06213 15.032C2.61413 13.7093 1.87813 13.0267 0.854125 12.984V12.344C1.72879 12.408 2.87013 12.44 4.27813 12.44C5.81413 12.44 6.96613 12.408 7.73413 12.344V12.984C7.15813 13.0267 6.75279 13.1333 6.51813 13.304C6.28346 13.4747 6.16613 13.7413 6.16613 14.104C6.16613 14.4453 6.28346 14.968 6.51813 15.672L11.1901 29.944L15.0941 17.56L14.2301 15.032C13.8035 13.7093 13.1741 13.0267 12.3421 12.984V12.344C13.1101 12.408 14.1448 12.44 15.4461 12.44C17.2808 12.44 18.6461 12.408 19.5421 12.344V12.984C18.7315 13.0267 18.1661 13.1227 17.8461 13.272C17.5261 13.4 17.3661 13.688 17.3661 14.136C17.3661 14.52 17.4728 15.032 17.6861 15.672L22.2941 29.912L26.2301 17.528C26.5715 16.4827 26.7421 15.6187 26.7421 14.936C26.7421 14.232 26.5288 13.7413 26.1021 13.464C25.6755 13.1653 24.9821 13.0053 24.0221 12.984V12.344C25.2381 12.408 26.4648 12.44 27.7021 12.44ZM47.7749 30.904C47.7749 32.12 47.8495 33.4853 47.9989 35C46.5482 34.936 44.1055 34.904 40.6709 34.904C36.5749 34.904 33.4815 34.936 31.3909 35V34.36C32.1589 34.3173 32.7135 34.232 33.0549 34.104C33.4175 33.976 33.6629 33.7307 33.7909 33.368C33.9189 33.0053 33.9829 32.4187 33.9829 31.608V15.736C33.9829 14.9253 33.9189 14.3387 33.7909 13.976C33.6629 13.6133 33.4175 13.368 33.0549 13.24C32.7135 13.112 32.1589 13.0267 31.3909 12.984V12.344C33.4815 12.408 36.5749 12.44 40.6709 12.44C43.8069 12.44 46.0362 12.408 47.3589 12.344C47.2095 13.752 47.1349 15.0107 47.1349 16.12C47.1349 16.952 47.1669 17.6133 47.2309 18.104H46.4949C46.3455 16.7173 46.1535 15.6933 45.9189 15.032C45.6842 14.3493 45.2895 13.8587 44.7349 13.56C44.1802 13.24 43.3375 13.08 42.2069 13.08H39.5509C38.7829 13.08 38.2175 13.144 37.8549 13.272C37.5135 13.3787 37.2789 13.6133 37.1509 13.976C37.0229 14.3387 36.9589 14.9253 36.9589 15.736V23.288H39.0709C39.8175 23.288 40.3935 23.1173 40.7989 22.776C41.2042 22.4133 41.4709 21.9973 41.5989 21.528C41.7482 21.0373 41.8655 20.4293 41.9509 19.704L42.0469 19.064H42.7829C42.7189 19.96 42.6869 20.9627 42.6869 22.072V23.608C42.6869 24.696 42.7509 26.2107 42.8789 28.152H42.1429C42.1215 28.0027 42.0575 27.4907 41.9509 26.616C41.8442 25.72 41.5455 25.048 41.0549 24.6C40.5855 24.152 39.9242 23.928 39.0709 23.928H36.9589V31.608C36.9589 32.4187 37.0229 33.0053 37.1509 33.368C37.2789 33.7307 37.5135 33.976 37.8549 34.104C38.2175 34.2107 38.7829 34.264 39.5509 34.264H41.8869C43.2095 34.264 44.2122 34.0933 44.8949 33.752C45.5989 33.3893 46.1109 32.824 46.4309 32.056C46.7509 31.2667 46.9855 30.1147 47.1349 28.6H47.8709C47.8069 29.176 47.7749 29.944 47.7749 30.904ZM59.6269 12.344C63.4029 12.344 66.2295 13.2933 68.1069 15.192C69.9842 17.0693 70.9229 19.8107 70.9229 23.416C70.9229 25.7413 70.4642 27.7787 69.5469 29.528C68.6295 31.2773 67.2962 32.632 65.5469 33.592C63.8189 34.5307 61.7495 35 59.3389 35L57.4829 34.968C56.2882 34.9253 55.4135 34.904 54.8589 34.904C53.1095 34.904 51.7869 34.936 50.8909 35V34.36C51.6589 34.3173 52.2135 34.232 52.5549 34.104C52.9175 33.976 53.1629 33.7307 53.2909 33.368C53.4189 33.0053 53.4829 32.4187 53.4829 31.608V15.736C53.4829 14.9253 53.4189 14.3387 53.2909 13.976C53.1629 13.6133 52.9175 13.368 52.5549 13.24C52.2135 13.112 51.6589 13.0267 50.8909 12.984V12.344C51.6375 12.408 52.6722 12.44 53.9949 12.44L56.7149 12.408C58.1655 12.3653 59.1362 12.344 59.6269 12.344ZM58.8269 12.92C58.1655 12.92 57.6642 12.9947 57.3229 13.144C57.0029 13.2933 56.7789 13.56 56.6509 13.944C56.5229 14.328 56.4589 14.904 56.4589 15.672V31.672C56.4589 32.44 56.5229 33.016 56.6509 33.4C56.7789 33.784 57.0029 34.0507 57.3229 34.2C57.6642 34.3493 58.1762 34.424 58.8589 34.424C61.1202 34.424 62.9015 34.0187 64.2029 33.208C65.5042 32.376 66.4109 31.1707 66.9229 29.592C67.4562 28.0133 67.7229 25.9973 67.7229 23.544C67.7229 21.0907 67.4349 19.096 66.8589 17.56C66.2829 16.0027 65.3442 14.84 64.0429 14.072C62.7629 13.304 61.0242 12.92 58.8269 12.92ZM82.4706 12.344C86.2466 12.344 89.0733 13.2933 90.9506 15.192C92.828 17.0693 93.7666 19.8107 93.7666 23.416C93.7666 25.7413 93.308 27.7787 92.3906 29.528C91.4733 31.2773 90.14 32.632 88.3906 33.592C86.6626 34.5307 84.5933 35 82.1826 35L80.3266 34.968C79.132 34.9253 78.2573 34.904 77.7026 34.904C75.9533 34.904 74.6306 34.936 73.7346 35V34.36C74.5026 34.3173 75.0573 34.232 75.3986 34.104C75.7613 33.976 76.0066 33.7307 76.1346 33.368C76.2626 33.0053 76.3266 32.4187 76.3266 31.608V15.736C76.3266 14.9253 76.2626 14.3387 76.1346 13.976C76.0066 13.6133 75.7613 13.368 75.3986 13.24C75.0573 13.112 74.5026 13.0267 73.7346 12.984V12.344C74.4813 12.408 75.516 12.44 76.8386 12.44L79.5586 12.408C81.0093 12.3653 81.98 12.344 82.4706 12.344ZM81.6706 12.92C81.0093 12.92 80.508 12.9947 80.1666 13.144C79.8466 13.2933 79.6226 13.56 79.4946 13.944C79.3666 14.328 79.3026 14.904 79.3026 15.672V31.672C79.3026 32.44 79.3666 33.016 79.4946 33.4C79.6226 33.784 79.8466 34.0507 80.1666 34.2C80.508 34.3493 81.02 34.424 81.7026 34.424C83.964 34.424 85.7453 34.0187 87.0466 33.208C88.348 32.376 89.2546 31.1707 89.7666 29.592C90.3 28.0133 90.5666 25.9973 90.5666 23.544C90.5666 21.0907 90.2786 19.096 89.7026 17.56C89.1266 16.0027 88.188 14.84 86.8866 14.072C85.6066 13.304 83.868 12.92 81.6706 12.92ZM104.738 12.984C103.97 13.0267 103.405 13.112 103.042 13.24C102.701 13.368 102.466 13.6133 102.338 13.976C102.21 14.3387 102.146 14.9253 102.146 15.736V31.608C102.146 32.4187 102.21 33.0053 102.338 33.368C102.466 33.7307 102.701 33.976 103.042 34.104C103.405 34.232 103.97 34.3173 104.738 34.36V35C103.757 34.936 102.402 34.904 100.674 34.904C98.8397 34.904 97.4744 34.936 96.5784 35V34.36C97.3464 34.3173 97.901 34.232 98.2424 34.104C98.605 33.976 98.8504 33.7307 98.9784 33.368C99.1064 33.0053 99.1704 32.4187 99.1704 31.608V15.736C99.1704 14.9253 99.1064 14.3387 98.9784 13.976C98.8504 13.6133 98.605 13.368 98.2424 13.24C97.901 13.112 97.3464 13.0267 96.5784 12.984V12.344C97.4744 12.408 98.8397 12.44 100.674 12.44C102.381 12.44 103.736 12.408 104.738 12.344V12.984ZM127.518 12.984C126.771 13.0267 126.217 13.144 125.854 13.336C125.491 13.5067 125.246 13.8053 125.118 14.232C124.99 14.6373 124.926 15.2453 124.926 16.056V35.16H124.19L110.75 14.392V31.288C110.75 32.12 110.814 32.7387 110.942 33.144C111.091 33.5493 111.369 33.848 111.774 34.04C112.179 34.2107 112.809 34.3173 113.662 34.36V35C112.894 34.936 111.806 34.904 110.398 34.904C109.118 34.904 108.126 34.936 107.422 35V34.36C108.169 34.3173 108.723 34.2107 109.086 34.04C109.449 33.848 109.694 33.5493 109.822 33.144C109.95 32.7173 110.014 32.0987 110.014 31.288V15.736C110.014 14.9253 109.95 14.3387 109.822 13.976C109.694 13.6133 109.449 13.368 109.086 13.24C108.745 13.112 108.19 13.0267 107.422 12.984V12.344C108.126 12.408 109.118 12.44 110.398 12.44C111.358 12.44 112.19 12.408 112.894 12.344L124.19 29.752V16.056C124.19 15.224 124.115 14.6053 123.966 14.2C123.838 13.7947 123.571 13.5067 123.166 13.336C122.761 13.144 122.131 13.0267 121.278 12.984V12.344C122.046 12.408 123.134 12.44 124.542 12.44C125.822 12.44 126.814 12.408 127.518 12.344V12.984ZM140.485 11.896C141.744 11.896 142.778 12.0773 143.589 12.44C144.4 12.7813 145.285 13.2933 146.245 13.976C146.522 14.1893 146.736 14.296 146.885 14.296C147.29 14.296 147.557 13.6453 147.685 12.344H148.421C148.336 13.7307 148.293 16.184 148.293 19.704H147.557C147.365 18.5733 147.162 17.6453 146.949 16.92C146.736 16.1733 146.405 15.5227 145.957 14.968C145.338 14.2 144.528 13.592 143.525 13.144C142.544 12.696 141.509 12.472 140.421 12.472C139.013 12.472 137.776 12.9307 136.709 13.848C135.642 14.7653 134.821 16.0773 134.245 17.784C133.669 19.4693 133.381 21.4427 133.381 23.704C133.381 27.544 133.989 30.36 135.205 32.152C136.442 33.9227 138.373 34.808 140.997 34.808C142.277 34.808 143.386 34.4773 144.325 33.816C144.709 33.56 144.954 33.3147 145.061 33.08C145.189 32.824 145.253 32.4827 145.253 32.056V28.984C145.253 28.088 145.168 27.4373 144.997 27.032C144.826 26.6267 144.528 26.3493 144.101 26.2C143.674 26.0507 142.981 25.9547 142.021 25.912V25.272C143.13 25.336 144.634 25.368 146.533 25.368C147.984 25.368 149.093 25.336 149.861 25.272V25.912C149.37 25.9547 149.008 26.04 148.773 26.168C148.56 26.296 148.41 26.5413 148.325 26.904C148.261 27.2667 148.229 27.8533 148.229 28.664V35H147.589C147.568 34.5733 147.482 34.168 147.333 33.784C147.184 33.3787 146.981 33.176 146.725 33.176C146.597 33.176 146.469 33.208 146.341 33.272C146.213 33.336 145.989 33.4853 145.669 33.72C144.922 34.296 144.144 34.7227 143.333 35C142.544 35.2987 141.658 35.448 140.677 35.448C138.48 35.448 136.592 35 135.013 34.104C133.456 33.1867 132.261 31.8747 131.429 30.168C130.597 28.4613 130.181 26.424 130.181 24.056C130.181 21.624 130.618 19.4907 131.493 17.656C132.389 15.8 133.616 14.3813 135.173 13.4C136.73 12.3973 138.501 11.896 140.485 11.896ZM35.7676 57.708V61.668C35.7676 62.2253 35.8263 62.6287 35.9436 62.878C36.061 63.1273 36.2663 63.296 36.5596 63.384C36.853 63.472 37.3296 63.5307 37.9896 63.56V64C37.227 63.956 36.149 63.934 34.7556 63.934C33.4943 63.934 32.5556 63.956 31.9396 64V63.56C32.4676 63.5307 32.849 63.472 33.0836 63.384C33.333 63.296 33.5016 63.1273 33.5896 62.878C33.6776 62.6287 33.7216 62.2253 33.7216 61.668V50.756C33.7216 50.1987 33.6776 49.7953 33.5896 49.546C33.5016 49.2967 33.333 49.128 33.0836 49.04C32.849 48.952 32.4676 48.8933 31.9396 48.864V48.424C32.5556 48.468 33.4503 48.49 34.6236 48.49L36.9996 48.468C37.2783 48.4533 37.5936 48.446 37.9456 48.446C39.6616 48.446 40.9743 48.842 41.8836 49.634C42.793 50.4113 43.2476 51.46 43.2476 52.78C43.2476 53.5867 43.0643 54.364 42.6976 55.112C42.3456 55.8453 41.737 56.4613 40.8716 56.96C40.021 57.4587 38.8843 57.708 37.4616 57.708H35.7676ZM37.3956 48.864C36.941 48.864 36.5963 48.9153 36.3616 49.018C36.1416 49.1207 35.9876 49.304 35.8996 49.568C35.8116 49.832 35.7676 50.228 35.7676 50.756V57.268H37.2416C38.679 57.268 39.669 56.8867 40.2116 56.124C40.769 55.3467 41.0476 54.3127 41.0476 53.022C41.0476 51.5993 40.7616 50.5507 40.1896 49.876C39.6323 49.2013 38.701 48.864 37.3956 48.864ZM50.4188 48.864C49.8908 48.8933 49.5021 48.952 49.2528 49.04C49.0181 49.128 48.8568 49.2967 48.7688 49.546C48.6808 49.7953 48.6368 50.1987 48.6368 50.756V61.668C48.6368 62.2253 48.6808 62.6287 48.7688 62.878C48.8568 63.1273 49.0181 63.296 49.2528 63.384C49.5021 63.4573 49.8908 63.494 50.4188 63.494H52.0248C52.9341 63.494 53.6234 63.3693 54.0928 63.12C54.5768 62.856 54.9288 62.438 55.1488 61.866C55.3688 61.294 55.5301 60.4653 55.6328 59.38H56.1388C56.0948 59.8347 56.0728 60.436 56.0728 61.184C56.0728 62.02 56.1241 62.9587 56.2268 64C55.2294 63.956 53.5501 63.934 51.1888 63.934C48.3728 63.934 46.2461 63.956 44.8088 64V63.56C45.3368 63.5307 45.7181 63.472 45.9528 63.384C46.2021 63.296 46.3708 63.1273 46.4588 62.878C46.5468 62.6287 46.5908 62.2253 46.5908 61.668V50.756C46.5908 50.1987 46.5468 49.7953 46.4588 49.546C46.3708 49.2967 46.2021 49.128 45.9528 49.04C45.7181 48.952 45.3368 48.8933 44.8088 48.864V48.424C45.4248 48.468 46.3634 48.49 47.6248 48.49C48.7981 48.49 49.7294 48.468 50.4188 48.424V48.864ZM69.2924 62.152C69.6444 63.0613 70.1504 63.5307 70.8104 63.56V64C70.2237 63.956 69.439 63.934 68.4564 63.934C67.195 63.934 66.2564 63.956 65.6404 64V63.56C66.1977 63.5307 66.5937 63.4647 66.8284 63.362C67.0777 63.2447 67.2024 63.0393 67.2024 62.746C67.2024 62.4967 67.1144 62.152 66.9384 61.712L65.5964 58.104H60.2724L59.3704 60.436C59.077 61.228 58.9304 61.8293 58.9304 62.24C58.9304 62.6947 59.0844 63.0247 59.3924 63.23C59.715 63.4353 60.199 63.5453 60.8444 63.56V64C60.0084 63.956 59.165 63.934 58.3144 63.934C57.6544 63.934 57.1044 63.956 56.6644 64V63.56C57.3977 63.384 57.977 62.746 58.4024 61.646L63.5724 48.314H63.9244L69.2924 62.152ZM65.4204 57.664L62.9564 51.086L60.4484 57.664H65.4204ZM84.9861 48.864C84.4728 48.8933 84.0914 48.974 83.8421 49.106C83.5928 49.2233 83.4241 49.4287 83.3361 49.722C83.2481 50.0007 83.2041 50.4187 83.2041 50.976V64.11H82.6981L73.4581 49.832V61.448C73.4581 62.02 73.5021 62.4453 73.5901 62.724C73.6928 63.0027 73.8834 63.208 74.1621 63.34C74.4408 63.4573 74.8734 63.5307 75.4601 63.56V64C74.9321 63.956 74.1841 63.934 73.2161 63.934C72.3361 63.934 71.6541 63.956 71.1701 64V63.56C71.6834 63.5307 72.0648 63.4573 72.3141 63.34C72.5634 63.208 72.7321 63.0027 72.8201 62.724C72.9081 62.4307 72.9521 62.0053 72.9521 61.448V50.756C72.9521 50.1987 72.9081 49.7953 72.8201 49.546C72.7321 49.2967 72.5634 49.128 72.3141 49.04C72.0794 48.952 71.6981 48.8933 71.1701 48.864V48.424C71.6541 48.468 72.3361 48.49 73.2161 48.49C73.8761 48.49 74.4481 48.468 74.9321 48.424L82.6981 60.392V50.976C82.6981 50.404 82.6468 49.9787 82.5441 49.7C82.4561 49.4213 82.2728 49.2233 81.9941 49.106C81.7154 48.974 81.2828 48.8933 80.6961 48.864V48.424C81.2241 48.468 81.9721 48.49 82.9401 48.49C83.8201 48.49 84.5021 48.468 84.9861 48.424V48.864ZM100.519 48.864C100.006 48.8933 99.6246 48.974 99.3753 49.106C99.126 49.2233 98.9573 49.4287 98.8693 49.722C98.7813 50.0007 98.7373 50.4187 98.7373 50.976V64.11H98.2313L88.9913 49.832V61.448C88.9913 62.02 89.0353 62.4453 89.1233 62.724C89.226 63.0027 89.4166 63.208 89.6953 63.34C89.974 63.4573 90.4066 63.5307 90.9933 63.56V64C90.4653 63.956 89.7173 63.934 88.7493 63.934C87.8693 63.934 87.1873 63.956 86.7033 64V63.56C87.2166 63.5307 87.598 63.4573 87.8473 63.34C88.0966 63.208 88.2653 63.0027 88.3533 62.724C88.4413 62.4307 88.4853 62.0053 88.4853 61.448V50.756C88.4853 50.1987 88.4413 49.7953 88.3533 49.546C88.2653 49.2967 88.0966 49.128 87.8473 49.04C87.6126 48.952 87.2313 48.8933 86.7033 48.864V48.424C87.1873 48.468 87.8693 48.49 88.7493 48.49C89.4093 48.49 89.9813 48.468 90.4653 48.424L98.2313 60.392V50.976C98.2313 50.404 98.18 49.9787 98.0773 49.7C97.9893 49.4213 97.806 49.2233 97.5273 49.106C97.2486 48.974 96.816 48.8933 96.2293 48.864V48.424C96.7573 48.468 97.5053 48.49 98.4733 48.49C99.3533 48.49 100.035 48.468 100.519 48.424V48.864ZM113.501 61.184C113.501 62.02 113.552 62.9587 113.655 64C112.657 63.956 110.978 63.934 108.617 63.934C105.801 63.934 103.674 63.956 102.237 64V63.56C102.765 63.5307 103.146 63.472 103.381 63.384C103.63 63.296 103.799 63.1273 103.887 62.878C103.975 62.6287 104.019 62.2253 104.019 61.668V50.756C104.019 50.1987 103.975 49.7953 103.887 49.546C103.799 49.2967 103.63 49.128 103.381 49.04C103.146 48.952 102.765 48.8933 102.237 48.864V48.424C103.674 48.468 105.801 48.49 108.617 48.49C110.773 48.49 112.305 48.468 113.215 48.424C113.112 49.392 113.061 50.2573 113.061 51.02C113.061 51.592 113.083 52.0467 113.127 52.384H112.62C112.518 51.4307 112.386 50.7267 112.225 50.272C112.063 49.8027 111.792 49.4653 111.411 49.26C111.029 49.04 110.45 48.93 109.673 48.93H107.847C107.319 48.93 106.93 48.974 106.681 49.062C106.446 49.1353 106.285 49.2967 106.197 49.546C106.109 49.7953 106.065 50.1987 106.065 50.756V55.948H107.517C108.03 55.948 108.426 55.8307 108.705 55.596C108.983 55.3467 109.167 55.0607 109.255 54.738C109.357 54.4007 109.438 53.9827 109.497 53.484L109.563 53.044H110.069C110.025 53.66 110.003 54.3493 110.003 55.112V56.168C110.003 56.916 110.047 57.9573 110.135 59.292H109.629C109.614 59.1893 109.57 58.8373 109.497 58.236C109.423 57.62 109.218 57.158 108.881 56.85C108.558 56.542 108.103 56.388 107.517 56.388H106.065V61.668C106.065 62.2253 106.109 62.6287 106.197 62.878C106.285 63.1273 106.446 63.296 106.681 63.384C106.93 63.4573 107.319 63.494 107.847 63.494H109.453C110.362 63.494 111.051 63.3767 111.521 63.142C112.005 62.8927 112.357 62.504 112.577 61.976C112.797 61.4333 112.958 60.6413 113.061 59.6H113.567C113.523 59.996 113.501 60.524 113.501 61.184ZM129.239 62.9C128.901 63.3987 128.564 63.758 128.227 63.978C127.889 64.198 127.442 64.308 126.885 64.308C126.283 64.308 125.785 64.132 125.389 63.78C125.007 63.428 124.721 62.812 124.531 61.932L124.047 59.732C123.871 58.9693 123.702 58.3827 123.541 57.972C123.394 57.5613 123.167 57.2313 122.859 56.982C122.551 56.7327 122.118 56.608 121.561 56.608H119.471V61.668C119.471 62.2253 119.515 62.6287 119.603 62.878C119.691 63.1273 119.852 63.296 120.087 63.384C120.336 63.472 120.725 63.5307 121.253 63.56V64C120.578 63.956 119.647 63.934 118.459 63.934C117.197 63.934 116.259 63.956 115.643 64V63.56C116.171 63.5307 116.552 63.472 116.787 63.384C117.036 63.296 117.205 63.1273 117.293 62.878C117.381 62.6287 117.425 62.2253 117.425 61.668V50.756C117.425 50.1987 117.381 49.7953 117.293 49.546C117.205 49.2967 117.036 49.128 116.787 49.04C116.552 48.952 116.171 48.8933 115.643 48.864V48.424C116.259 48.468 117.153 48.49 118.327 48.49L120.703 48.468C120.981 48.4533 121.297 48.446 121.649 48.446C123.35 48.446 124.655 48.8053 125.565 49.524C126.489 50.228 126.951 51.1447 126.951 52.274C126.951 52.846 126.811 53.4253 126.533 54.012C126.269 54.584 125.814 55.1047 125.169 55.574C124.538 56.0287 123.709 56.3367 122.683 56.498L122.947 56.542C123.915 56.7033 124.619 56.9967 125.059 57.422C125.499 57.8473 125.821 58.522 126.027 59.446L126.577 61.69C126.723 62.3647 126.877 62.834 127.039 63.098C127.2 63.362 127.42 63.494 127.699 63.494C127.948 63.494 128.153 63.428 128.315 63.296C128.491 63.164 128.689 62.9513 128.909 62.658L129.239 62.9ZM121.099 48.864C120.644 48.864 120.299 48.9153 120.065 49.018C119.845 49.1207 119.691 49.304 119.603 49.568C119.515 49.832 119.471 50.228 119.471 50.756V56.168H120.945C122.397 56.168 123.394 55.8453 123.937 55.2C124.479 54.5547 124.751 53.66 124.751 52.516C124.751 51.3133 124.465 50.404 123.893 49.788C123.321 49.172 122.389 48.864 121.099 48.864Z" fill="white"/>
</svg>
