<svg width="101" height="38" viewBox="0 0 101 38" fill="none" xmlns="http://www.w3.org/2000/svg">
<path d="M16.8177 4.9C17.4177 4.9 17.9177 4.88 18.3177 4.84V5.24C17.5711 5.41333 17.0444 5.99333 16.7377 6.98L12.9577 19.1H12.7977H12.6377L9.15773 8.8L5.97773 19.1H5.81773H5.65773L1.41773 6.52C1.13773 5.69333 0.677734 5.26667 0.0377344 5.24V4.84C0.584401 4.88 1.29773 4.9 2.17773 4.9C3.13773 4.9 3.85773 4.88 4.33773 4.84V5.24C3.97773 5.26667 3.7244 5.33333 3.57773 5.44C3.43107 5.54667 3.35773 5.71333 3.35773 5.94C3.35773 6.15333 3.43107 6.48 3.57773 6.92L6.49773 15.84L8.93773 8.1L8.39773 6.52C8.13107 5.69333 7.73773 5.26667 7.21773 5.24V4.84C7.69773 4.88 8.3444 4.9 9.15773 4.9C10.3044 4.9 11.1577 4.88 11.7177 4.84V5.24C11.2111 5.26667 10.8577 5.32667 10.6577 5.42C10.4577 5.5 10.3577 5.68 10.3577 5.96C10.3577 6.2 10.4244 6.52 10.5577 6.92L13.4377 15.82L15.8977 8.08C16.1111 7.42667 16.2177 6.88667 16.2177 6.46C16.2177 6.02 16.0844 5.71333 15.8177 5.54C15.5511 5.35333 15.1177 5.25333 14.5177 5.24V4.84C15.2777 4.88 16.0444 4.9 16.8177 4.9ZM29.3632 16.44C29.3632 17.2 29.4099 18.0533 29.5032 19C28.5965 18.96 27.0699 18.94 24.9232 18.94C22.3632 18.94 20.4299 18.96 19.1232 19V18.6C19.6032 18.5733 19.9499 18.52 20.1632 18.44C20.3899 18.36 20.5432 18.2067 20.6232 17.98C20.7032 17.7533 20.7432 17.3867 20.7432 16.88V6.96C20.7432 6.45333 20.7032 6.08667 20.6232 5.86C20.5432 5.63333 20.3899 5.48 20.1632 5.4C19.9499 5.32 19.6032 5.26667 19.1232 5.24V4.84C20.4299 4.88 22.3632 4.9 24.9232 4.9C26.8832 4.9 28.2765 4.88 29.1032 4.84C29.0099 5.72 28.9632 6.50667 28.9632 7.2C28.9632 7.72 28.9832 8.13333 29.0232 8.44H28.5632C28.4699 7.57333 28.3499 6.93333 28.2032 6.52C28.0565 6.09333 27.8099 5.78667 27.4632 5.6C27.1165 5.4 26.5899 5.3 25.8832 5.3H24.2232C23.7432 5.3 23.3899 5.34 23.1632 5.42C22.9499 5.48667 22.8032 5.63333 22.7232 5.86C22.6432 6.08667 22.6032 6.45333 22.6032 6.96V11.68H23.9232C24.3899 11.68 24.7499 11.5733 25.0032 11.36C25.2565 11.1333 25.4232 10.8733 25.5032 10.58C25.5965 10.2733 25.6699 9.89333 25.7232 9.44L25.7832 9.04H26.2432C26.2032 9.6 26.1832 10.2267 26.1832 10.92V11.88C26.1832 12.56 26.2232 13.5067 26.3032 14.72H25.8432C25.8299 14.6267 25.7899 14.3067 25.7232 13.76C25.6565 13.2 25.4699 12.78 25.1632 12.5C24.8699 12.22 24.4565 12.08 23.9232 12.08H22.6032V16.88C22.6032 17.3867 22.6432 17.7533 22.7232 17.98C22.8032 18.2067 22.9499 18.36 23.1632 18.44C23.3899 18.5067 23.7432 18.54 24.2232 18.54H25.6832C26.5099 18.54 27.1365 18.4333 27.5632 18.22C28.0032 17.9933 28.3232 17.64 28.5232 17.16C28.7232 16.6667 28.8699 15.9467 28.9632 15H29.4232C29.3832 15.36 29.3632 15.84 29.3632 16.44ZM36.7707 4.84C39.1307 4.84 40.8974 5.43333 42.0707 6.62C43.244 7.79333 43.8307 9.50667 43.8307 11.76C43.8307 13.2133 43.544 14.4867 42.9707 15.58C42.3974 16.6733 41.564 17.52 40.4707 18.12C39.3907 18.7067 38.0974 19 36.5907 19L35.4307 18.98C34.684 18.9533 34.1374 18.94 33.7907 18.94C32.6974 18.94 31.8707 18.96 31.3107 19V18.6C31.7907 18.5733 32.1374 18.52 32.3507 18.44C32.5774 18.36 32.7307 18.2067 32.8107 17.98C32.8907 17.7533 32.9307 17.3867 32.9307 16.88V6.96C32.9307 6.45333 32.8907 6.08667 32.8107 5.86C32.7307 5.63333 32.5774 5.48 32.3507 5.4C32.1374 5.32 31.7907 5.26667 31.3107 5.24V4.84C31.7774 4.88 32.424 4.9 33.2507 4.9L34.9507 4.88C35.8574 4.85333 36.464 4.84 36.7707 4.84ZM36.2707 5.2C35.8574 5.2 35.544 5.24667 35.3307 5.34C35.1307 5.43333 34.9907 5.6 34.9107 5.84C34.8307 6.08 34.7907 6.44 34.7907 6.92V16.92C34.7907 17.4 34.8307 17.76 34.9107 18C34.9907 18.24 35.1307 18.4067 35.3307 18.5C35.544 18.5933 35.864 18.64 36.2907 18.64C37.704 18.64 38.8174 18.3867 39.6307 17.88C40.444 17.36 41.0107 16.6067 41.3307 15.62C41.664 14.6333 41.8307 13.3733 41.8307 11.84C41.8307 10.3067 41.6507 9.06 41.2907 8.1C40.9307 7.12667 40.344 6.4 39.5307 5.92C38.7307 5.44 37.644 5.2 36.2707 5.2ZM51.048 4.84C53.408 4.84 55.1747 5.43333 56.348 6.62C57.5214 7.79333 58.108 9.50667 58.108 11.76C58.108 13.2133 57.8214 14.4867 57.248 15.58C56.6747 16.6733 55.8414 17.52 54.748 18.12C53.668 18.7067 52.3747 19 50.868 19L49.708 18.98C48.9614 18.9533 48.4147 18.94 48.068 18.94C46.9747 18.94 46.148 18.96 45.588 19V18.6C46.068 18.5733 46.4147 18.52 46.628 18.44C46.8547 18.36 47.008 18.2067 47.088 17.98C47.168 17.7533 47.208 17.3867 47.208 16.88V6.96C47.208 6.45333 47.168 6.08667 47.088 5.86C47.008 5.63333 46.8547 5.48 46.628 5.4C46.4147 5.32 46.068 5.26667 45.588 5.24V4.84C46.0547 4.88 46.7014 4.9 47.528 4.9L49.228 4.88C50.1347 4.85333 50.7414 4.84 51.048 4.84ZM50.548 5.2C50.1347 5.2 49.8214 5.24667 49.608 5.34C49.408 5.43333 49.268 5.6 49.188 5.84C49.108 6.08 49.068 6.44 49.068 6.92V16.92C49.068 17.4 49.108 17.76 49.188 18C49.268 18.24 49.408 18.4067 49.608 18.5C49.8214 18.5933 50.1414 18.64 50.568 18.64C51.9814 18.64 53.0947 18.3867 53.908 17.88C54.7214 17.36 55.288 16.6067 55.608 15.62C55.9414 14.6333 56.108 13.3733 56.108 11.84C56.108 10.3067 55.928 9.06 55.568 8.1C55.208 7.12667 54.6214 6.4 53.808 5.92C53.008 5.44 51.9214 5.2 50.548 5.2ZM64.9654 5.24C64.4854 5.26667 64.1321 5.32 63.9054 5.4C63.6921 5.48 63.5454 5.63333 63.4654 5.86C63.3854 6.08667 63.3454 6.45333 63.3454 6.96V16.88C63.3454 17.3867 63.3854 17.7533 63.4654 17.98C63.5454 18.2067 63.6921 18.36 63.9054 18.44C64.1321 18.52 64.4854 18.5733 64.9654 18.6V19C64.3521 18.96 63.5054 18.94 62.4254 18.94C61.2787 18.94 60.4254 18.96 59.8654 19V18.6C60.3454 18.5733 60.6921 18.52 60.9054 18.44C61.1321 18.36 61.2854 18.2067 61.3654 17.98C61.4454 17.7533 61.4854 17.3867 61.4854 16.88V6.96C61.4854 6.45333 61.4454 6.08667 61.3654 5.86C61.2854 5.63333 61.1321 5.48 60.9054 5.4C60.6921 5.32 60.3454 5.26667 59.8654 5.24V4.84C60.4254 4.88 61.2787 4.9 62.4254 4.9C63.4921 4.9 64.3387 4.88 64.9654 4.84V5.24ZM79.2027 5.24C78.7361 5.26667 78.3894 5.34 78.1627 5.46C77.9361 5.56667 77.7827 5.75333 77.7027 6.02C77.6227 6.27333 77.5827 6.65333 77.5827 7.16V19.1H77.1227L68.7227 6.12V16.68C68.7227 17.2 68.7627 17.5867 68.8427 17.84C68.9361 18.0933 69.1094 18.28 69.3627 18.4C69.6161 18.5067 70.0094 18.5733 70.5427 18.6V19C70.0627 18.96 69.3827 18.94 68.5027 18.94C67.7027 18.94 67.0827 18.96 66.6427 19V18.6C67.1094 18.5733 67.4561 18.5067 67.6827 18.4C67.9094 18.28 68.0627 18.0933 68.1427 17.84C68.2227 17.5733 68.2627 17.1867 68.2627 16.68V6.96C68.2627 6.45333 68.2227 6.08667 68.1427 5.86C68.0627 5.63333 67.9094 5.48 67.6827 5.4C67.4694 5.32 67.1227 5.26667 66.6427 5.24V4.84C67.0827 4.88 67.7027 4.9 68.5027 4.9C69.1027 4.9 69.6227 4.88 70.0627 4.84L77.1227 15.72V7.16C77.1227 6.64 77.0761 6.25333 76.9827 6C76.9027 5.74667 76.7361 5.56667 76.4827 5.46C76.2294 5.34 75.8361 5.26667 75.3027 5.24V4.84C75.7827 4.88 76.4627 4.9 77.3427 4.9C78.1427 4.9 78.7627 4.88 79.2027 4.84V5.24ZM87.3071 4.56C88.0938 4.56 88.7404 4.67333 89.2471 4.9C89.7538 5.11333 90.3071 5.43333 90.9071 5.86C91.0804 5.99333 91.2138 6.06 91.3071 6.06C91.5604 6.06 91.7271 5.65333 91.8071 4.84H92.2671C92.2138 5.70667 92.1871 7.24 92.1871 9.44H91.7271C91.6071 8.73333 91.4804 8.15333 91.3471 7.7C91.2138 7.23333 91.0071 6.82667 90.7271 6.48C90.3404 6 89.8338 5.62 89.2071 5.34C88.5938 5.06 87.9471 4.92 87.2671 4.92C86.3871 4.92 85.6138 5.20667 84.9471 5.78C84.2804 6.35333 83.7671 7.17333 83.4071 8.24C83.0471 9.29333 82.8671 10.5267 82.8671 11.94C82.8671 14.34 83.2471 16.1 84.0071 17.22C84.7804 18.3267 85.9871 18.88 87.6271 18.88C88.4271 18.88 89.1204 18.6733 89.7071 18.26C89.9471 18.1 90.1004 17.9467 90.1671 17.8C90.2471 17.64 90.2871 17.4267 90.2871 17.16V15.24C90.2871 14.68 90.2338 14.2733 90.1271 14.02C90.0204 13.7667 89.8338 13.5933 89.5671 13.5C89.3004 13.4067 88.8671 13.3467 88.2671 13.32V12.92C88.9604 12.96 89.9004 12.98 91.0871 12.98C91.9938 12.98 92.6871 12.96 93.1671 12.92V13.32C92.8604 13.3467 92.6338 13.4 92.4871 13.48C92.3538 13.56 92.2604 13.7133 92.2071 13.94C92.1671 14.1667 92.1471 14.5333 92.1471 15.04V19H91.7471C91.7338 18.7333 91.6804 18.48 91.5871 18.24C91.4938 17.9867 91.3671 17.86 91.2071 17.86C91.1271 17.86 91.0471 17.88 90.9671 17.92C90.8871 17.96 90.7471 18.0533 90.5471 18.2C90.0804 18.56 89.5938 18.8267 89.0871 19C88.5938 19.1867 88.0404 19.28 87.4271 19.28C86.0538 19.28 84.8738 19 83.8871 18.44C82.9138 17.8667 82.1671 17.0467 81.6471 15.98C81.1271 14.9133 80.8671 13.64 80.8671 12.16C80.8671 10.64 81.1404 9.30667 81.6871 8.16C82.2471 7 83.0138 6.11333 83.9871 5.5C84.9604 4.87333 86.0671 4.56 87.3071 4.56ZM22.3521 30.996V33.516C22.3521 33.8707 22.3895 34.1273 22.4641 34.286C22.5388 34.4447 22.6695 34.552 22.8561 34.608C23.0428 34.664 23.3461 34.7013 23.7661 34.72V35C23.2808 34.972 22.5948 34.958 21.7081 34.958C20.9055 34.958 20.3081 34.972 19.9161 35V34.72C20.2521 34.7013 20.4948 34.664 20.6441 34.608C20.8028 34.552 20.9101 34.4447 20.9661 34.286C21.0221 34.1273 21.0501 33.8707 21.0501 33.516V26.572C21.0501 26.2173 21.0221 25.9607 20.9661 25.802C20.9101 25.6433 20.8028 25.536 20.6441 25.48C20.4948 25.424 20.2521 25.3867 19.9161 25.368V25.088C20.3081 25.116 20.8775 25.13 21.6241 25.13L23.1361 25.116C23.3135 25.1067 23.5141 25.102 23.7381 25.102C24.8301 25.102 25.6655 25.354 26.2441 25.858C26.8228 26.3527 27.1121 27.02 27.1121 27.86C27.1121 28.3733 26.9955 28.868 26.7621 29.344C26.5381 29.8107 26.1508 30.2027 25.6001 30.52C25.0588 30.8373 24.3355 30.996 23.4301 30.996H22.3521ZM23.3881 25.368C23.0988 25.368 22.8795 25.4007 22.7301 25.466C22.5901 25.5313 22.4921 25.648 22.4361 25.816C22.3801 25.984 22.3521 26.236 22.3521 26.572V30.716H23.2901C24.2048 30.716 24.8348 30.4733 25.1801 29.988C25.5348 29.4933 25.7121 28.8353 25.7121 28.014C25.7121 27.1087 25.5301 26.4413 25.1661 26.012C24.8115 25.5827 24.2188 25.368 23.3881 25.368ZM31.6756 25.368C31.3396 25.3867 31.0922 25.424 30.9336 25.48C30.7842 25.536 30.6816 25.6433 30.6256 25.802C30.5696 25.9607 30.5416 26.2173 30.5416 26.572V33.516C30.5416 33.8707 30.5696 34.1273 30.6256 34.286C30.6816 34.4447 30.7842 34.552 30.9336 34.608C31.0922 34.6547 31.3396 34.678 31.6756 34.678H32.6976C33.2762 34.678 33.7149 34.5987 34.0136 34.44C34.3216 34.272 34.5456 34.006 34.6856 33.642C34.8256 33.278 34.9282 32.7507 34.9936 32.06H35.3156C35.2876 32.3493 35.2736 32.732 35.2736 33.208C35.2736 33.74 35.3062 34.3373 35.3716 35C34.7369 34.972 33.6682 34.958 32.1656 34.958C30.3736 34.958 29.0202 34.972 28.1056 35V34.72C28.4416 34.7013 28.6842 34.664 28.8336 34.608C28.9922 34.552 29.0996 34.4447 29.1556 34.286C29.2116 34.1273 29.2396 33.8707 29.2396 33.516V26.572C29.2396 26.2173 29.2116 25.9607 29.1556 25.802C29.0996 25.6433 28.9922 25.536 28.8336 25.48C28.6842 25.424 28.4416 25.3867 28.1056 25.368V25.088C28.4976 25.116 29.0949 25.13 29.8976 25.13C30.6442 25.13 31.2369 25.116 31.6756 25.088V25.368ZM43.686 33.824C43.91 34.4027 44.232 34.7013 44.652 34.72V35C44.2787 34.972 43.7794 34.958 43.154 34.958C42.3514 34.958 41.754 34.972 41.362 35V34.72C41.7167 34.7013 41.9687 34.6593 42.118 34.594C42.2767 34.5193 42.356 34.3887 42.356 34.202C42.356 34.0433 42.3 33.824 42.188 33.544L41.334 31.248H37.946L37.372 32.732C37.1854 33.236 37.092 33.6187 37.092 33.88C37.092 34.1693 37.19 34.3793 37.386 34.51C37.5914 34.6407 37.8994 34.7107 38.31 34.72V35C37.778 34.972 37.2414 34.958 36.7 34.958C36.28 34.958 35.93 34.972 35.65 35V34.72C36.1167 34.608 36.4854 34.202 36.756 33.502L40.046 25.018H40.27L43.686 33.824ZM41.222 30.968L39.654 26.782L38.058 30.968H41.222ZM53.673 25.368C53.3463 25.3867 53.1036 25.438 52.945 25.522C52.7863 25.5967 52.679 25.7273 52.623 25.914C52.567 26.0913 52.539 26.3573 52.539 26.712V35.07H52.217L46.337 25.984V33.376C46.337 33.74 46.365 34.0107 46.421 34.188C46.4863 34.3653 46.6076 34.496 46.785 34.58C46.9623 34.6547 47.2376 34.7013 47.611 34.72V35C47.275 34.972 46.799 34.958 46.183 34.958C45.623 34.958 45.189 34.972 44.881 35V34.72C45.2076 34.7013 45.4503 34.6547 45.609 34.58C45.7676 34.496 45.875 34.3653 45.931 34.188C45.987 34.0013 46.015 33.7307 46.015 33.376V26.572C46.015 26.2173 45.987 25.9607 45.931 25.802C45.875 25.6433 45.7676 25.536 45.609 25.48C45.4596 25.424 45.217 25.3867 44.881 25.368V25.088C45.189 25.116 45.623 25.13 46.183 25.13C46.603 25.13 46.967 25.116 47.275 25.088L52.217 32.704V26.712C52.217 26.348 52.1843 26.0773 52.119 25.9C52.063 25.7227 51.9463 25.5967 51.769 25.522C51.5916 25.438 51.3163 25.3867 50.943 25.368V25.088C51.279 25.116 51.755 25.13 52.371 25.13C52.931 25.13 53.365 25.116 53.673 25.088V25.368ZM63.5577 25.368C63.2311 25.3867 62.9884 25.438 62.8297 25.522C62.6711 25.5967 62.5637 25.7273 62.5077 25.914C62.4517 26.0913 62.4237 26.3573 62.4237 26.712V35.07H62.1017L56.2217 25.984V33.376C56.2217 33.74 56.2497 34.0107 56.3057 34.188C56.3711 34.3653 56.4924 34.496 56.6697 34.58C56.8471 34.6547 57.1224 34.7013 57.4957 34.72V35C57.1597 34.972 56.6837 34.958 56.0677 34.958C55.5077 34.958 55.0737 34.972 54.7657 35V34.72C55.0924 34.7013 55.3351 34.6547 55.4937 34.58C55.6524 34.496 55.7597 34.3653 55.8157 34.188C55.8717 34.0013 55.8997 33.7307 55.8997 33.376V26.572C55.8997 26.2173 55.8717 25.9607 55.8157 25.802C55.7597 25.6433 55.6524 25.536 55.4937 25.48C55.3444 25.424 55.1017 25.3867 54.7657 25.368V25.088C55.0737 25.116 55.5077 25.13 56.0677 25.13C56.4877 25.13 56.8517 25.116 57.1597 25.088L62.1017 32.704V26.712C62.1017 26.348 62.0691 26.0773 62.0037 25.9C61.9477 25.7227 61.8311 25.5967 61.6537 25.522C61.4764 25.438 61.2011 25.3867 60.8277 25.368V25.088C61.1637 25.116 61.6397 25.13 62.2557 25.13C62.8157 25.13 63.2497 25.116 63.5577 25.088V25.368ZM71.8185 33.208C71.8185 33.74 71.8512 34.3373 71.9165 35C71.2818 34.972 70.2132 34.958 68.7105 34.958C66.9185 34.958 65.5652 34.972 64.6505 35V34.72C64.9865 34.7013 65.2292 34.664 65.3785 34.608C65.5372 34.552 65.6445 34.4447 65.7005 34.286C65.7565 34.1273 65.7845 33.8707 65.7845 33.516V26.572C65.7845 26.2173 65.7565 25.9607 65.7005 25.802C65.6445 25.6433 65.5372 25.536 65.3785 25.48C65.2292 25.424 64.9865 25.3867 64.6505 25.368V25.088C65.5652 25.116 66.9185 25.13 68.7105 25.13C70.0825 25.13 71.0578 25.116 71.6365 25.088C71.5712 25.704 71.5385 26.2547 71.5385 26.74C71.5385 27.104 71.5525 27.3933 71.5805 27.608H71.2585C71.1932 27.0013 71.1092 26.5533 71.0065 26.264C70.9038 25.9653 70.7312 25.7507 70.4885 25.62C70.2458 25.48 69.8772 25.41 69.3825 25.41H68.2205C67.8845 25.41 67.6372 25.438 67.4785 25.494C67.3292 25.5407 67.2265 25.6433 67.1705 25.802C67.1145 25.9607 67.0865 26.2173 67.0865 26.572V29.876H68.0105C68.3372 29.876 68.5892 29.8013 68.7665 29.652C68.9438 29.4933 69.0605 29.3113 69.1165 29.106C69.1818 28.8913 69.2332 28.6253 69.2705 28.308L69.3125 28.028H69.6345C69.6065 28.42 69.5925 28.8587 69.5925 29.344V30.016C69.5925 30.492 69.6205 31.1547 69.6765 32.004H69.3545C69.3452 31.9387 69.3172 31.7147 69.2705 31.332C69.2238 30.94 69.0932 30.646 68.8785 30.45C68.6732 30.254 68.3838 30.156 68.0105 30.156H67.0865V33.516C67.0865 33.8707 67.1145 34.1273 67.1705 34.286C67.2265 34.4447 67.3292 34.552 67.4785 34.608C67.6372 34.6547 67.8845 34.678 68.2205 34.678H69.2425C69.8212 34.678 70.2598 34.6033 70.5585 34.454C70.8665 34.2953 71.0905 34.048 71.2305 33.712C71.3705 33.3667 71.4732 32.8627 71.5385 32.2H71.8605C71.8325 32.452 71.8185 32.788 71.8185 33.208ZM81.8338 34.3C81.6191 34.6173 81.4044 34.846 81.1898 34.986C80.9751 35.126 80.6904 35.196 80.3358 35.196C79.9531 35.196 79.6358 35.084 79.3838 34.86C79.1411 34.636 78.9591 34.244 78.8378 33.684L78.5298 32.284C78.4178 31.7987 78.3104 31.4253 78.2078 31.164C78.1144 30.9027 77.9698 30.6927 77.7738 30.534C77.5778 30.3753 77.3024 30.296 76.9478 30.296H75.6178V33.516C75.6178 33.8707 75.6458 34.1273 75.7018 34.286C75.7578 34.4447 75.8604 34.552 76.0098 34.608C76.1684 34.664 76.4158 34.7013 76.7518 34.72V35C76.3224 34.972 75.7298 34.958 74.9738 34.958C74.1711 34.958 73.5738 34.972 73.1818 35V34.72C73.5178 34.7013 73.7604 34.664 73.9098 34.608C74.0684 34.552 74.1758 34.4447 74.2318 34.286C74.2878 34.1273 74.3158 33.8707 74.3158 33.516V26.572C74.3158 26.2173 74.2878 25.9607 74.2318 25.802C74.1758 25.6433 74.0684 25.536 73.9098 25.48C73.7604 25.424 73.5178 25.3867 73.1818 25.368V25.088C73.5738 25.116 74.1431 25.13 74.8898 25.13L76.4018 25.116C76.5791 25.1067 76.7798 25.102 77.0038 25.102C78.0864 25.102 78.9171 25.3307 79.4958 25.788C80.0838 26.236 80.3778 26.8193 80.3778 27.538C80.3778 27.902 80.2891 28.2707 80.1118 28.644C79.9438 29.008 79.6544 29.3393 79.2438 29.638C78.8424 29.9273 78.3151 30.1233 77.6618 30.226L77.8298 30.254C78.4458 30.3567 78.8938 30.5433 79.1738 30.814C79.4538 31.0847 79.6591 31.514 79.7897 32.102L80.1398 33.53C80.2331 33.9593 80.3311 34.258 80.4338 34.426C80.5364 34.594 80.6764 34.678 80.8538 34.678C81.0124 34.678 81.1431 34.636 81.2458 34.552C81.3578 34.468 81.4838 34.3327 81.6238 34.146L81.8338 34.3ZM76.6538 25.368C76.3644 25.368 76.1451 25.4007 75.9958 25.466C75.8558 25.5313 75.7578 25.648 75.7018 25.816C75.6458 25.984 75.6178 26.236 75.6178 26.572V30.016H76.5558C77.4798 30.016 78.1144 29.8107 78.4598 29.4C78.8051 28.9893 78.9778 28.42 78.9778 27.692C78.9778 26.9267 78.7958 26.348 78.4318 25.956C78.0678 25.564 77.4751 25.368 76.6538 25.368Z" fill="white"/>
</svg>
