<svg width="72" height="72" viewBox="0 0 72 72" fill="none" xmlns="http://www.w3.org/2000/svg">
<path d="M28.7308 6.075C27.8365 6.075 27.0361 5.775 26.3293 5.175C25.6226 4.575 25.2692 3.8625 25.2692 3.0375C25.2692 2.2125 25.6226 1.5 26.3293 0.9C27.0361 0.3 27.8365 0 28.7308 0C29.6538 0 30.4904 0.3 31.2404 0.9C31.9904 1.5 32.3654 2.2125 32.3654 3.0375C32.3654 3.8625 31.9904 4.575 31.2404 5.175C30.4904 5.775 29.6538 6.075 28.7308 6.075ZM41.4519 6.075C40.5288 6.075 39.7067 5.775 38.9856 5.175C38.2644 4.575 37.9038 3.8625 37.9038 3.0375C37.9038 2.2125 38.2644 1.5 38.9856 0.9C39.7067 0.3 40.5288 0 41.4519 0C42.375 0 43.1971 0.3 43.9183 0.9C44.6394 1.5 45 2.2125 45 3.0375C45 3.8625 44.6394 4.575 43.9183 5.175C43.1971 5.775 42.375 6.075 41.4519 6.075ZM68.5817 66.825H65.5962V54.6C65.5962 55.675 65.0192 56.5938 63.8654 57.3563C62.7115 58.1188 61.2981 58.5 59.625 58.5C57.9808 58.5 56.5817 58.1188 55.4279 57.3563C54.274 56.5938 53.6971 55.675 53.6971 54.6C53.6971 55.675 53.113 56.5938 51.9447 57.3563C50.7764 58.1188 49.3702 58.5 47.726 58.5C46.0817 58.5 44.6755 58.1188 43.5072 57.3563C42.3389 56.5938 41.7548 55.675 41.7548 54.6C41.7548 55.675 41.1707 56.5938 40.0024 57.3563C38.8341 58.1188 37.4279 58.5 35.7837 58.5C34.1394 58.5 32.7332 58.1188 31.5649 57.3563C30.3966 56.5938 29.8125 55.675 29.8125 54.6C29.8125 55.675 29.2284 56.5938 28.0601 57.3563C26.8918 58.1188 25.4856 58.5 23.8413 58.5C22.1971 58.5 20.7981 58.1188 19.6442 57.3563C18.4904 56.5938 17.9135 55.675 17.9135 54.6C17.9135 55.675 17.3293 56.5938 16.1611 57.3563C14.9928 58.1188 13.5865 58.5 11.9423 58.5C10.2981 58.5 8.89183 58.1188 7.72356 57.3563C6.55529 56.5938 5.97115 55.675 5.97115 54.6V66.825H2.98558C2.14904 66.825 1.44231 67.075 0.865385 67.575C0.288462 68.075 0 68.6875 0 69.4125C0 70.1375 0.288462 70.75 0.865385 71.25C1.44231 71.75 2.14904 72 2.98558 72H68.5817C69.4183 72 70.125 71.75 70.7019 71.25C71.2788 70.75 71.5673 70.1375 71.5673 69.4125C71.5673 68.6875 71.2788 68.075 70.7019 67.575C70.125 67.075 69.4183 66.825 68.5817 66.825ZM53.6971 49.7625C53.6971 50.8375 54.274 51.7563 55.4279 52.5188C56.5817 53.2813 57.9808 53.6625 59.625 53.6625C61.2981 53.6625 62.7115 53.2875 63.8654 52.5375C65.0192 51.7875 65.5962 50.8625 65.5962 49.7625V47.475C65.5962 46.4 65.1923 45.4813 64.3846 44.7188C63.5769 43.9563 62.5817 43.575 61.399 43.575H10.2548C9.07212 43.575 8.0625 43.9563 7.22596 44.7188C6.38942 45.4813 5.97115 46.4 5.97115 47.475V49.7625C5.97115 50.8375 6.55529 51.7563 7.72356 52.5188C8.89183 53.2813 10.2981 53.6625 11.9423 53.6625C13.5865 53.6625 14.9928 53.2813 16.1611 52.5188C17.3293 51.7563 17.9135 50.8375 17.9135 49.7625C17.9135 50.8375 18.4904 51.7563 19.6442 52.5188C20.7981 53.2813 22.1971 53.6625 23.8413 53.6625C25.4856 53.6625 26.8918 53.2813 28.0601 52.5188C29.2284 51.7563 29.8125 50.8375 29.8125 49.7625C29.8125 50.8375 30.3966 51.7563 31.5649 52.5188C32.7332 53.2813 34.1394 53.6625 35.7837 53.6625C37.4279 53.6625 38.8341 53.2813 40.0024 52.5188C41.1707 51.7563 41.7548 50.8375 41.7548 49.7625C41.7548 50.8375 42.3389 51.7563 43.5072 52.5188C44.6755 53.2813 46.0817 53.6625 47.726 53.6625C49.3702 53.6625 50.7764 53.2813 51.9447 52.5188C53.113 51.7563 53.6971 50.8375 53.6971 49.7625ZM53.6971 40.9875V28.3875C53.6971 29.4625 53.113 30.3875 51.9447 31.1625C50.7764 31.9375 49.3702 32.325 47.726 32.325C46.0817 32.325 44.6755 31.9375 43.5072 31.1625C42.3389 30.3875 41.7548 29.4625 41.7548 28.3875C41.7548 29.4625 41.1707 30.3875 40.0024 31.1625C38.8341 31.9375 37.4279 32.325 35.7837 32.325C34.1394 32.325 32.7332 31.9375 31.5649 31.1625C30.3966 30.3875 29.8125 29.4625 29.8125 28.3875C29.8125 29.4625 29.2284 30.3875 28.0601 31.1625C26.8918 31.9375 25.4856 32.325 23.8413 32.325C22.1971 32.325 20.7981 31.9438 19.6442 31.1813C18.4904 30.4188 17.9135 29.4875 17.9135 28.3875V40.9875H53.6971ZM36.3462 17.7375H46.4712L43.0962 11.6625V9.4875C43.0962 9.0625 42.9231 8.85 42.5769 8.85H40.1971C39.8798 8.85 39.7212 9.0625 39.7212 9.4875V11.6625L36.3462 17.7375ZM48.8942 17.7375H50.3654C51.3462 17.7375 52.1466 18.1063 52.7668 18.8438C53.387 19.5813 53.6971 20.5 53.6971 21.6V23.55C53.6971 24.625 53.113 25.55 51.9447 26.325C50.7764 27.1 49.3702 27.4875 47.726 27.4875C46.0817 27.4875 44.6755 27.1 43.5072 26.325C42.3389 25.55 41.7548 24.625 41.7548 23.55C41.7548 24.625 41.1707 25.55 40.0024 26.325C38.8341 27.1 37.4279 27.4875 35.7837 27.4875C34.1394 27.4875 32.7332 27.1 31.5649 26.325C30.3966 25.55 29.8125 24.625 29.8125 23.55C29.8125 24.625 29.2284 25.55 28.0601 26.325C26.8918 27.1 25.4856 27.4875 23.8413 27.4875C22.1971 27.4875 20.7981 27.1063 19.6442 26.3438C18.4904 25.5813 17.9135 24.65 17.9135 23.55V21.6C17.9135 20.525 18.2596 19.6125 18.9519 18.8625C19.6442 18.1125 20.4808 17.7375 21.4615 17.7375H25.875V12.9375H23.9279V8.6625C23.9279 8.3875 24.1226 8.075 24.512 7.725C24.9014 7.375 25.2404 7.2 25.5288 7.2H32.0625C32.351 7.2 32.6827 7.375 33.0577 7.725C33.4327 8.075 33.6202 8.3875 33.6202 8.6625V12.9375H31.7163V17.7375H33.9231C34.4423 16.5875 35.6394 14.4125 37.5144 11.2125V8.625C37.5144 8.35 37.7236 8.04375 38.1418 7.70625C38.5601 7.36875 38.9423 7.2 39.2885 7.2H43.5288C43.875 7.2 44.2572 7.36875 44.6755 7.70625C45.0938 8.04375 45.3029 8.35 45.3029 8.625V11.2125C47.1779 14.4125 48.375 16.5875 48.8942 17.7375Z" fill="#AC4474"/>
</svg>
