<svg width="72" height="72" viewBox="0 0 72 72" fill="none" xmlns="http://www.w3.org/2000/svg">
<path d="M7.82682 18.798C8.37582 18.06 9.09882 17.061 9.67782 16.347C11.4118 14.379 11.6368 14.121 13.2148 12.666C13.6828 12.282 14.2378 11.82 14.7808 11.385C10.7758 14.775 10.2658 18.528 13.9408 20.847C13.9348 20.847 13.9348 20.847 13.9348 20.853C19.0738 23.949 30.3358 23.28 39.2218 19.314C47.8288 15.474 51.0058 9.981 46.7578 6.717C43.0288 6.018 38.5828 5.937 33.8788 6.567L33.3898 5.76L33.7948 4.422C36.5608 4.173 39.1888 4.233 41.4568 4.62C42.0058 4.713 42.7288 4.872 43.2688 4.986C44.3128 5.241 44.8798 5.394 45.5608 5.613C46.2568 5.82 46.8508 6.027 47.8858 6.411C48.8998 6.81 49.3378 6.99 50.1508 7.395C51.0613 7.81039 51.9459 8.28024 52.7998 8.802C59.5678 13.059 55.3588 20.826 43.4158 26.148C31.5058 31.452 16.3288 32.286 9.52782 28.08C9.52482 28.074 9.51582 28.068 9.49782 28.062H9.50982C5.79582 25.71 5.40582 22.296 7.82682 18.798ZM38.8138 48.558L38.7178 43.776L35.3188 39.996C24.0898 42.54 13.0528 41.994 6.91482 38.379C6.89382 38.355 6.84282 38.331 6.82182 38.307C3.34782 36.168 2.48982 33.408 2.75082 30.408C1.93782 34.797 1.87182 36.381 1.98882 40.137C2.13282 42.489 3.49182 44.658 6.22482 46.368L6.24582 46.392C12.7888 50.46 26.4208 51.342 38.8138 48.558ZM52.9888 54.033C37.1398 60.39 17.3038 60.765 8.68782 54.882C9.61829 57.1559 10.8844 59.2775 12.4438 61.176C20.3518 66.576 38.5588 66.231 53.0998 60.396C61.6108 56.985 66.9808 52.446 68.3908 48.192L68.7868 46.911C69.7258 43.665 69.9028 40.962 70.0528 38.556C69.8818 43.779 63.7288 49.719 52.9888 54.033ZM18.0028 66.276C18.5008 66.75 20.0668 68.673 28.0018 70.797C30.1468 71.271 35.5468 72.792 45.5218 70.581L45.5818 69.672L44.7928 68.436C35.5378 70.626 25.2568 69.894 18.0028 66.276ZM40.9048 28.449L49.3318 34.836C49.3318 34.836 51.1348 36.135 49.4338 37.047C47.7388 37.95 43.3858 40.161 43.3858 40.161L39.0868 38.556L36.9298 39.516L40.7338 42.819L40.7638 47.958L42.9988 46.965L44.4808 42.624C44.4808 42.624 49.0318 40.872 50.8378 40.212C52.6528 39.567 52.4098 41.775 52.4098 41.775L51.5158 52.308L54.4858 50.988L59.3758 36.777C59.3758 36.777 61.9678 35.517 63.7918 34.41C65.6128 33.303 66.2368 31.467 66.2368 31.467C66.2368 31.467 64.4608 30.702 62.4148 31.317C60.3688 31.926 57.7018 33.012 57.7018 33.012L43.8658 27.135L40.9048 28.449ZM23.0758 8.241L28.7968 12.798L30.3598 12.564L27.2458 8.475C27.2458 8.475 26.5678 7.629 27.4798 7.428C28.3978 7.224 30.7198 6.75 30.7198 6.75L32.4658 8.145L33.6418 7.971L32.3098 5.853L33.0118 3.504L31.8748 3.669L30.5278 5.457C30.5278 5.457 28.1638 5.679 27.2338 5.757C26.2978 5.829 26.6998 4.824 26.6998 4.824L28.4938 0L26.9218 0.231L22.7818 6.258C22.7818 6.258 21.4018 6.51 20.4028 6.795C19.4008 7.077 18.8728 7.851 18.8728 7.851C18.8728 7.851 19.6078 8.445 20.6428 8.424C21.6868 8.403 23.0758 8.241 23.0758 8.241ZM51.3508 66.795L47.6488 64.86L46.7968 65.157L48.9898 67.119C48.9898 67.119 49.4578 67.518 48.9658 67.731C48.4738 67.941 47.2198 68.457 47.2198 68.457L46.1848 67.995L45.5698 68.217L46.4308 69.135L46.3468 70.476L46.9888 70.254L47.4688 69.165C47.4688 69.165 48.7708 68.778 49.2898 68.64C49.8058 68.499 49.6888 69.105 49.6888 69.105L49.1998 72L50.0548 71.703L51.7318 67.875C51.7318 67.875 52.4728 67.584 53.0038 67.317C53.5348 67.05 53.7448 66.558 53.7448 66.558C53.7448 66.558 53.2738 66.3 52.6918 66.429C52.1068 66.552 51.3508 66.795 51.3508 66.795Z" fill="#AC4474"/>
</svg>
