<svg width="72" height="72" viewBox="0 0 72 72" fill="none" xmlns="http://www.w3.org/2000/svg">
<path d="M40.5 9C32.256 9 25.3643 14.0625 22.2188 21.1635C20.9093 20.619 19.512 20.25 18 20.25C11.8125 20.25 6.75 25.3125 6.75 31.5C6.75 31.8263 6.795 32.1075 6.81975 32.4135C2.8305 35.271 0 39.735 0 45C0 53.6738 7.07625 60.75 15.75 60.75H56.25C64.9238 60.75 72 53.6738 72 45C72 37.908 67.158 32.1143 60.6802 30.1635C60.6982 29.8575 60.75 29.5672 60.75 29.25C60.75 18.0968 51.6532 9 40.5 9ZM40.5 13.5C49.2277 13.5 56.25 20.5223 56.25 29.25C56.25 29.9363 56.205 30.6292 56.1082 31.3605L55.7573 33.5385L58.0073 33.8895C60.6578 34.2979 63.0737 35.644 64.8157 37.6829C66.5578 39.7218 67.5103 42.3182 67.5 45C67.5 51.2393 62.4893 56.25 56.25 56.25H15.75C9.51075 56.25 4.5 51.2393 4.5 45C4.49635 42.9941 5.02909 41.0237 6.04303 39.2929C7.05697 37.5621 8.51523 36.1339 10.2668 35.1562L11.673 34.3822L11.3918 32.7645C11.3022 32.3488 11.2548 31.9252 11.25 31.5C11.25 27.747 14.247 24.75 18 24.75C19.467 24.75 20.8125 25.2067 21.9375 26.0168L24.4688 27.9135L25.3822 24.8197C26.3377 21.551 28.3279 18.6806 31.0539 16.6394C33.7799 14.5983 37.0945 13.4967 40.5 13.5ZM45 29.25V49.5H49.5V29.25H45ZM36 33.75V49.5H40.5V33.75H36ZM27 36V49.5H31.5V36H27ZM18 38.25V49.5H22.5V38.25H18Z" fill="#AC4474"/>
</svg>
